<svg width="74" height="53" viewBox="0 0 74 53" fill="none" xmlns="http://www.w3.org/2000/svg">
<path d="M64.4886 36.933H9.51095C8.43425 36.933 7.55078 36.0426 7.55078 34.9481V2.15173C7.55078 1.05728 8.43425 0.176147 9.51095 0.176147H64.4794C65.5653 0.176147 66.4395 1.06655 66.4395 2.15173V34.9574C66.4487 36.0426 65.5653 36.933 64.4886 36.933Z" fill="#3FACD7"/>
<path d="M39.5215 12.0111L39.2178 12.6232C39.2178 12.6232 38.0307 13.4487 36.1901 13.2076C36.1901 13.2076 35.6656 11.7607 35.8036 10.4343C35.914 9.33995 38.2976 7.33651 38.2976 7.33651L38.5552 5.34239L44.6935 4.70241C44.6935 4.70241 46.5065 2.95871 47.528 4.59111L51.9545 6.65944L57.0069 12.8829L55.0651 17.2793C55.0651 17.2793 57.7431 20.3679 58.691 20.5905L59.7677 19.3291L60.1543 20.8131C60.1543 20.8131 64.3047 21.5087 62.8322 25.8216L60.2831 27.0366L59.418 22.6402L57.605 21.991L56.74 23.0391L51.9914 21.5551L52.3778 24.3839L51.4668 25.8216L54.2737 25.2094L56.0406 23.8182L58.3689 24.2541L58.2401 25.8679L57.467 26.5636L58.5898 29.4388L57.9824 31.8318L54.5682 29.3924L53.9239 32.481L50.1232 30.4776L46.4053 30.5611L43.1198 31.1732L40.8744 33.223L40.313 30.1344L38.5829 29.0029L36.549 30.3478L36.8527 24.9497L33.3557 23.6883L32.5826 20.9429L42.1535 18.55L39.2639 16.5002L40.9019 14.5432L39.5215 12.0111ZM29.8678 17.6225C29.8678 17.6225 30.5212 13.3096 30.0702 12.8551C29.6194 12.4006 28.607 9.6553 27.3002 9.72942L26.0394 12.8922L24.4474 12.9293L24.0424 14.1629L21.5117 14.6174C21.5117 14.6174 21.4748 16.2219 20.3337 16.63C19.1925 17.0381 14.0574 17.372 14.0574 17.372L12.5113 20.7852L10.8364 22.1023L11.2413 23.4193L15.1525 23.7069L14.9501 24.6529H17.6833C17.6833 24.6529 17.1127 26.3781 18.7416 26.7862C20.3705 27.1943 22.1651 28.3073 22.1651 28.3073L25.1376 27.8992L27.5027 29.9953L28.8095 26.6656L28.0364 23.2988L26.4904 21.0357L28.4505 19.598L29.8678 17.6225Z" fill="#5BCAEE"/>
<path d="M23.0025 15.4058H13.5236C12.9714 15.4058 12.5205 14.9513 12.5205 14.3948V4.84154C12.5205 4.28504 12.9714 3.83057 13.5236 3.83057H23.0025C23.5547 3.83057 24.0056 4.28504 24.0056 4.84154V14.3948C24.0056 14.9513 23.5547 15.4058 23.0025 15.4058Z" fill="#F37970"/>
<path d="M13.1094 5.41662V6.02877H15.5481V4.42419H14.0941C13.5511 4.42419 13.1094 4.86939 13.1094 5.41662Z" fill="#FBD984"/>
<path d="M15.5481 6.81708H13.1094V9.2193H15.5481V6.81708Z" fill="#FBD984"/>
<path d="M15.5481 10.0171H13.1094V12.4194H15.5481V10.0171Z" fill="#FBD984"/>
<path d="M13.1094 13.8198C13.1094 14.367 13.5511 14.8122 14.0941 14.8122H15.5481V13.2076H13.1094V13.8198ZM20.9686 14.8122H22.4319C22.9748 14.8122 23.4165 14.367 23.4165 13.8198V13.2076H20.9686V14.8122ZM22.4319 4.42419H16.3304V6.02877V6.81714V9.21936V10.0078V12.41V13.1984V14.8029H20.1863V13.1984V12.41V10.017V9.22867V6.82642V6.02877H23.4165V5.41662C23.4165 4.86939 22.9748 4.42419 22.4319 4.42419Z" fill="#FBD984"/>
<path d="M23.4167 6.81708H20.9688V9.2193H23.4167V6.81708Z" fill="#FBD984"/>
<path d="M23.4167 10.0171H20.9688V12.4194H23.4167V10.0171Z" fill="#FBD984"/>
<path d="M14.7108 31.7112C14.7108 31.9523 14.6923 32.1657 14.6556 32.3604C14.6187 32.5552 14.5543 32.7222 14.4623 32.852C14.3702 32.9911 14.2598 33.0932 14.1126 33.1674C13.9653 33.2416 13.7904 33.2787 13.588 33.2787C13.3763 33.2787 13.2015 33.2416 13.0634 33.1766C12.9254 33.1024 12.815 33.0097 12.7322 32.8706C12.6493 32.7407 12.5941 32.5738 12.5665 32.3883C12.5296 32.1935 12.5205 31.9802 12.5205 31.739C12.5205 31.4979 12.5389 31.2845 12.5849 31.0898C12.6217 30.895 12.6861 30.728 12.7781 30.5982C12.8702 30.4591 12.9806 30.357 13.1278 30.2828C13.2751 30.2086 13.4407 30.1715 13.6524 30.1715C13.8641 30.1715 14.0389 30.2086 14.177 30.2736C14.315 30.3478 14.4255 30.4405 14.5083 30.5796C14.5911 30.7095 14.6463 30.8764 14.6739 31.0619C14.7015 31.2474 14.7108 31.47 14.7108 31.7112ZM14.0757 31.739C14.0757 31.5999 14.0757 31.47 14.0666 31.3587C14.0574 31.2474 14.0482 31.1547 14.0297 31.0712C14.0113 30.997 13.993 30.9321 13.9653 30.8764C13.9377 30.8208 13.9101 30.7744 13.8733 30.7466C13.8365 30.7095 13.7996 30.6909 13.7537 30.6724C13.7076 30.6538 13.6616 30.6538 13.6064 30.6538C13.5144 30.6538 13.4408 30.6724 13.3763 30.7188C13.3119 30.7651 13.2659 30.8301 13.2291 30.9135C13.1922 30.997 13.1647 31.1083 13.1555 31.2382C13.137 31.368 13.137 31.5257 13.137 31.6926C13.137 31.906 13.1463 32.0822 13.1647 32.2213C13.1831 32.3604 13.2107 32.4717 13.2475 32.5552C13.2843 32.6387 13.3304 32.6943 13.3948 32.7314C13.45 32.7685 13.5236 32.7778 13.6064 32.7778C13.6708 32.7778 13.726 32.7685 13.7721 32.75C13.8181 32.7314 13.8641 32.7036 13.8917 32.6665C13.9285 32.6294 13.9561 32.583 13.9837 32.5181C14.0113 32.4625 14.0297 32.3883 14.0389 32.3141C14.0574 32.2399 14.0666 32.1471 14.0666 32.0544C14.0757 31.9616 14.0757 31.8503 14.0757 31.739ZM17.4532 31.7112C17.4532 31.9523 17.4348 32.1657 17.3979 32.3604C17.3612 32.5552 17.2968 32.7222 17.2047 32.852C17.1127 32.9911 17.0023 33.0932 16.855 33.1674C16.7078 33.2416 16.5329 33.2787 16.3304 33.2787C16.1188 33.2787 15.9439 33.2416 15.8059 33.1766C15.6678 33.1024 15.5574 33.0097 15.4745 32.8706C15.3918 32.7407 15.3365 32.5738 15.3089 32.3883C15.2721 32.1935 15.2629 31.9802 15.2629 31.739C15.2629 31.4979 15.2813 31.2845 15.3273 31.0898C15.3641 30.895 15.4286 30.728 15.5206 30.5982C15.6126 30.4591 15.723 30.357 15.8703 30.2828C16.0175 30.2086 16.1832 30.1715 16.3949 30.1715C16.6065 30.1715 16.7814 30.2086 16.9194 30.2736C17.0575 30.3478 17.1679 30.4405 17.2507 30.5796C17.3335 30.7095 17.3887 30.8764 17.4164 31.0619C17.444 31.2474 17.4532 31.47 17.4532 31.7112ZM16.8274 31.739C16.8274 31.5999 16.8274 31.47 16.8182 31.3587C16.809 31.2474 16.7997 31.1547 16.7814 31.0712C16.763 30.9877 16.7445 30.9228 16.717 30.8672C16.6893 30.8115 16.6617 30.7651 16.6249 30.7373C16.5881 30.7002 16.5513 30.6817 16.5053 30.6631C16.4593 30.6446 16.4133 30.6446 16.358 30.6446C16.266 30.6446 16.1924 30.6631 16.128 30.7095C16.0635 30.7559 16.0175 30.8208 15.9808 30.9043C15.9439 30.9877 15.9163 31.099 15.9071 31.2289C15.8887 31.3587 15.8887 31.5164 15.8887 31.6834C15.8887 31.8967 15.8979 32.0729 15.9163 32.212C15.9347 32.3512 15.9623 32.4625 15.9991 32.5459C16.036 32.6294 16.0819 32.6851 16.1464 32.7222C16.2016 32.7593 16.2753 32.7685 16.358 32.7685C16.4225 32.7685 16.4777 32.7593 16.5237 32.7407C16.5697 32.7222 16.6157 32.6943 16.6434 32.6572C16.6801 32.6201 16.7078 32.5738 16.7353 32.5088C16.763 32.4532 16.7814 32.379 16.7906 32.3048C16.809 32.2306 16.8182 32.1378 16.8182 32.0451C16.8274 31.9616 16.8274 31.8503 16.8274 31.739ZM20.2048 31.7112C20.2048 31.9523 20.1864 32.1657 20.1496 32.3604C20.1128 32.5552 20.0483 32.7222 19.9564 32.852C19.8643 32.9911 19.7539 33.0932 19.6066 33.1674C19.4594 33.2416 19.2846 33.2787 19.082 33.2787C18.8704 33.2787 18.6956 33.2416 18.5575 33.1766C18.4194 33.1024 18.309 33.0097 18.2262 32.8706C18.1434 32.7407 18.0882 32.5738 18.0605 32.3883C18.0238 32.1935 18.0146 31.9802 18.0146 31.739C18.0146 31.4979 18.033 31.2845 18.079 31.0898C18.1158 30.895 18.1802 30.728 18.2722 30.5982C18.3642 30.4591 18.4747 30.357 18.622 30.2828C18.7692 30.2086 18.9348 30.1715 19.1465 30.1715C19.3582 30.1715 19.533 30.2086 19.671 30.2736C19.8091 30.3478 19.9195 30.4405 20.0024 30.5796C20.0852 30.7095 20.1404 30.8764 20.168 31.0619C20.1864 31.2474 20.2048 31.47 20.2048 31.7112ZM19.5791 31.739C19.5791 31.5999 19.5791 31.47 19.5698 31.3587C19.5606 31.2474 19.5514 31.1547 19.533 31.0712C19.5146 30.9877 19.4962 30.9228 19.4686 30.8672C19.441 30.8115 19.4134 30.7651 19.3765 30.7373C19.3398 30.7002 19.3029 30.6817 19.2569 30.6631C19.2109 30.6446 19.1649 30.6446 19.1097 30.6446C19.0176 30.6446 18.944 30.6631 18.8796 30.7095C18.8152 30.7559 18.7692 30.8208 18.7324 30.9043C18.6956 30.9877 18.6679 31.099 18.6587 31.2289C18.6403 31.3587 18.6403 31.5164 18.6403 31.6834C18.6403 31.8967 18.6495 32.0729 18.6679 32.212C18.6864 32.3512 18.7139 32.4625 18.7508 32.5459C18.7876 32.6294 18.8336 32.6851 18.898 32.7222C18.9532 32.7593 19.0268 32.7685 19.1097 32.7685C19.1741 32.7685 19.2293 32.7593 19.2753 32.7407C19.3213 32.7222 19.3674 32.6943 19.395 32.6572C19.4318 32.6201 19.4594 32.5738 19.487 32.5088C19.5146 32.4532 19.533 32.379 19.5422 32.3048C19.5606 32.2306 19.5698 32.1378 19.5698 32.0451C19.5791 31.9616 19.5791 31.8503 19.5791 31.739ZM22.9565 31.7112C22.9565 31.9523 22.938 32.1657 22.9013 32.3604C22.8644 32.5552 22.8 32.7222 22.708 32.852C22.6159 32.9911 22.5055 33.0932 22.3583 33.1674C22.211 33.2416 22.0362 33.2787 21.8337 33.2787C21.6221 33.2787 21.4472 33.2416 21.3091 33.1766C21.1711 33.1024 21.0607 33.0097 20.9779 32.8706C20.895 32.7407 20.8398 32.5738 20.8122 32.3883C20.7754 32.1935 20.7662 31.9802 20.7662 31.739C20.7662 31.4979 20.7846 31.2845 20.8306 31.0898C20.8674 30.895 20.9318 30.728 21.0239 30.5982C21.1159 30.4591 21.2263 30.357 21.3736 30.2828C21.5208 30.2086 21.6865 30.1715 21.8981 30.1715C22.1098 30.1715 22.2847 30.2086 22.4227 30.2736C22.5607 30.3478 22.6712 30.4405 22.754 30.5796C22.8368 30.7095 22.8921 30.8764 22.9196 31.0619C22.938 31.2474 22.9565 31.47 22.9565 31.7112ZM22.3306 31.739C22.3306 31.5999 22.3306 31.47 22.3214 31.3587C22.3123 31.2474 22.3031 31.1547 22.2847 31.0712C22.2662 30.9877 22.2478 30.9228 22.2202 30.8672C22.1926 30.8115 22.165 30.7651 22.1282 30.7373C22.0914 30.7002 22.0546 30.6817 22.0086 30.6631C21.9625 30.6446 21.9165 30.6446 21.8613 30.6446C21.7693 30.6446 21.6957 30.6631 21.6313 30.7095C21.5669 30.7559 21.5208 30.8208 21.484 30.9043C21.4472 30.9877 21.4196 31.099 21.4104 31.2289C21.392 31.3587 21.392 31.5164 21.392 31.6834C21.392 31.8967 21.4012 32.0729 21.4196 32.212C21.438 32.3512 21.4656 32.4625 21.5024 32.5459C21.5392 32.6294 21.5852 32.6851 21.6497 32.7222C21.7049 32.7593 21.7785 32.7685 21.8613 32.7685C21.9258 32.7685 21.981 32.7593 22.0269 32.7407C22.073 32.7222 22.119 32.6943 22.1466 32.6572C22.1834 32.6201 22.211 32.5738 22.2387 32.5088C22.2662 32.4532 22.2847 32.379 22.2939 32.3048C22.3123 32.2306 22.3214 32.1378 22.3214 32.0451C22.3214 31.9616 22.3306 31.8503 22.3306 31.739ZM27.5486 31.7112C27.5486 31.9523 27.5303 32.1657 27.4934 32.3604C27.4567 32.5552 27.3922 32.7222 27.3002 32.852C27.2081 32.9911 27.0978 33.0932 26.9505 33.1674C26.8033 33.2416 26.6284 33.2787 26.4259 33.2787C26.2143 33.2787 26.0394 33.2416 25.9014 33.1766C25.7633 33.1024 25.6529 33.0097 25.57 32.8706C25.4872 32.7407 25.432 32.5738 25.4044 32.3883C25.3676 32.1935 25.3584 31.9802 25.3584 31.739C25.3584 31.4979 25.3768 31.2845 25.4228 31.0898C25.4596 30.895 25.524 30.728 25.6161 30.5982C25.7081 30.4591 25.8185 30.357 25.9658 30.2828C26.113 30.2086 26.2787 30.1715 26.4903 30.1715C26.702 30.1715 26.8769 30.2086 27.0149 30.2736C27.153 30.3478 27.2633 30.4405 27.3462 30.5796C27.429 30.7095 27.4842 30.8764 27.5119 31.0619C27.5303 31.2474 27.5486 31.47 27.5486 31.7112ZM26.9229 31.739C26.9229 31.5999 26.9229 31.47 26.9137 31.3587C26.9044 31.2474 26.8952 31.1547 26.8769 31.0712C26.8585 30.9877 26.84 30.9228 26.8124 30.8672C26.7848 30.8115 26.7572 30.7651 26.7204 30.7373C26.6836 30.7002 26.6468 30.6817 26.6007 30.6631C26.5548 30.6446 26.5088 30.6446 26.4535 30.6446C26.3615 30.6446 26.2879 30.6631 26.2234 30.7095C26.159 30.7559 26.113 30.8208 26.0762 30.9043C26.0394 30.9877 26.0118 31.099 26.0026 31.2289C25.9842 31.3587 25.9842 31.5164 25.9842 31.6834C25.9842 31.8967 25.9934 32.0729 26.0118 32.212C26.0302 32.3512 26.0578 32.4625 26.0946 32.5459C26.1314 32.6294 26.1774 32.6851 26.2418 32.7222C26.297 32.7593 26.3707 32.7685 26.4535 32.7685C26.5179 32.7685 26.5732 32.7593 26.6192 32.7407C26.6652 32.7222 26.7112 32.6943 26.7388 32.6572C26.7756 32.6201 26.8033 32.5738 26.8308 32.5088C26.8585 32.4532 26.8769 32.379 26.886 32.3048C26.9044 32.2306 26.9137 32.1378 26.9137 32.0451C26.9229 31.9616 26.9229 31.8503 26.9229 31.739ZM30.3003 31.7112C30.3003 31.9523 30.2819 32.1657 30.2451 32.3604C30.2082 32.5552 30.1438 32.7222 30.0518 32.852C29.9598 32.9911 29.8493 33.0932 29.7021 33.1674C29.5549 33.2416 29.38 33.2787 29.1775 33.2787C28.9659 33.2787 28.7911 33.2416 28.653 33.1766C28.5149 33.1024 28.4045 33.0097 28.3217 32.8706C28.2389 32.7407 28.1837 32.5738 28.156 32.3883C28.1193 32.1935 28.11 31.9802 28.11 31.739C28.11 31.4979 28.1285 31.2845 28.1745 31.0898C28.2112 30.895 28.2757 30.728 28.3677 30.5982C28.4597 30.4591 28.5702 30.357 28.7174 30.2828C28.8647 30.2086 29.0303 30.1715 29.2419 30.1715C29.4537 30.1715 29.6285 30.2086 29.7665 30.2736C29.9045 30.3478 30.015 30.4405 30.0978 30.5796C30.1807 30.7095 30.2359 30.8764 30.2635 31.0619C30.2819 31.2474 30.3003 31.47 30.3003 31.7112ZM29.6745 31.739C29.6745 31.5999 29.6745 31.47 29.6653 31.3587C29.6561 31.2474 29.6469 31.1547 29.6285 31.0712C29.6101 30.9877 29.5917 30.9228 29.5641 30.8672C29.5364 30.8115 29.5089 30.7651 29.472 30.7373C29.4352 30.7002 29.3984 30.6817 29.3524 30.6631C29.3064 30.6446 29.2604 30.6446 29.2052 30.6446C29.1131 30.6446 29.0395 30.6631 28.9751 30.7095C28.9107 30.7559 28.8647 30.8208 28.8278 30.9043C28.7911 30.9877 28.7634 31.099 28.7542 31.2289C28.7358 31.3587 28.7358 31.5164 28.7358 31.6834C28.7358 31.8967 28.745 32.0729 28.7634 32.212C28.7819 32.3512 28.8094 32.4625 28.8463 32.5459C28.883 32.6294 28.9291 32.6851 28.9935 32.7222C29.0487 32.7593 29.1223 32.7685 29.2052 32.7685C29.2696 32.7685 29.3248 32.7593 29.3708 32.7407C29.4168 32.7222 29.4628 32.6943 29.4904 32.6572C29.5273 32.6201 29.5549 32.5738 29.5825 32.5088C29.6101 32.4532 29.6285 32.379 29.6377 32.3048C29.6561 32.2306 29.6653 32.1378 29.6653 32.0451C29.6653 31.9616 29.6745 31.8503 29.6745 31.739ZM33.052 31.7112C33.052 31.9523 33.0335 32.1657 32.9967 32.3604C32.9599 32.5552 32.8955 32.7222 32.8035 32.852C32.7114 32.9911 32.601 33.0932 32.4538 33.1674C32.3065 33.2416 32.1316 33.2787 31.9292 33.2787C31.7175 33.2787 31.5427 33.2416 31.4046 33.1766C31.2666 33.1024 31.1561 33.0097 31.0734 32.8706C30.9905 32.7407 30.9353 32.5738 30.9077 32.3883C30.8708 32.1935 30.8616 31.9802 30.8616 31.739C30.8616 31.4979 30.8801 31.2845 30.9261 31.0898C30.9629 30.895 31.0273 30.728 31.1194 30.5982C31.2114 30.4591 31.3218 30.357 31.469 30.2828C31.6163 30.2086 31.782 30.1715 31.9936 30.1715C32.2053 30.1715 32.3801 30.2086 32.5182 30.2736C32.6562 30.3478 32.7667 30.4405 32.8494 30.5796C32.9323 30.7095 32.9875 30.8764 33.0151 31.0619C33.0335 31.2474 33.052 31.47 33.052 31.7112ZM32.4169 31.739C32.4169 31.5999 32.4169 31.47 32.4077 31.3587C32.3986 31.2474 32.3894 31.1547 32.3709 31.0712C32.3525 30.9877 32.3341 30.9228 32.3065 30.8672C32.2789 30.8115 32.2513 30.7651 32.2145 30.7373C32.1777 30.7002 32.1409 30.6817 32.0949 30.6631C32.0488 30.6446 32.0028 30.6446 31.9476 30.6446C31.8556 30.6446 31.782 30.6631 31.7175 30.7095C31.6531 30.7559 31.6071 30.8208 31.5703 30.9043C31.5334 30.9877 31.5059 31.099 31.4967 31.2289C31.4783 31.3587 31.4783 31.5164 31.4783 31.6834C31.4783 31.8967 31.4875 32.0729 31.5059 32.212C31.5242 32.3512 31.5519 32.4625 31.5887 32.5459C31.6255 32.6294 31.6715 32.6851 31.736 32.7222C31.7912 32.7593 31.8648 32.7685 31.9476 32.7685C32.012 32.7685 32.0672 32.7593 32.1132 32.7407C32.1593 32.7222 32.2053 32.6943 32.2329 32.6572C32.2697 32.6201 32.2973 32.5738 32.3249 32.5088C32.3525 32.4532 32.3709 32.379 32.3801 32.3048C32.3986 32.2306 32.4077 32.1378 32.4077 32.0451C32.4169 31.9616 32.4169 31.8503 32.4169 31.739ZM35.7943 31.7112C35.7943 31.9523 35.776 32.1657 35.7391 32.3604C35.7024 32.5552 35.638 32.7222 35.5459 32.852C35.4539 32.9911 35.3435 33.0932 35.1962 33.1674C35.049 33.2416 34.8741 33.2787 34.6717 33.2787C34.46 33.2787 34.2851 33.2416 34.1471 33.1766C34.009 33.1024 33.8986 33.0097 33.8157 32.8706C33.7329 32.7407 33.6777 32.5738 33.6501 32.3883C33.6133 32.1935 33.6041 31.9802 33.6041 31.739C33.6041 31.4979 33.6225 31.2845 33.6685 31.0898C33.7053 30.895 33.7698 30.728 33.8618 30.5982C33.9538 30.4591 34.0642 30.357 34.2115 30.2828C34.3587 30.2086 34.5244 30.1715 34.7361 30.1715C34.9477 30.1715 35.1226 30.2086 35.2606 30.2736C35.3987 30.3478 35.5091 30.4405 35.5919 30.5796C35.6747 30.7095 35.7299 30.8764 35.7576 31.0619C35.7852 31.2474 35.7943 31.47 35.7943 31.7112ZM35.1686 31.739C35.1686 31.5999 35.1686 31.47 35.1594 31.3587C35.1502 31.2474 35.1409 31.1547 35.1226 31.0712C35.1042 30.9877 35.0858 30.9228 35.0581 30.8672C35.0306 30.8115 35.0029 30.7651 34.9661 30.7373C34.9293 30.7002 34.8925 30.6817 34.8465 30.6631C34.8005 30.6446 34.7545 30.6446 34.6992 30.6446C34.6072 30.6446 34.5336 30.6631 34.4691 30.7095C34.4047 30.7559 34.3587 30.8208 34.3219 30.9043C34.2851 30.9877 34.2575 31.099 34.2483 31.2289C34.2299 31.3587 34.2299 31.5164 34.2299 31.6834C34.2299 31.8967 34.2391 32.0729 34.2575 32.212C34.2759 32.3512 34.3035 32.4625 34.3403 32.5459C34.3772 32.6294 34.4231 32.6851 34.4876 32.7222C34.5428 32.7593 34.6164 32.7685 34.6992 32.7685C34.7636 32.7685 34.8189 32.7593 34.8649 32.7407C34.9109 32.7222 34.9569 32.6943 34.9845 32.6572C35.0213 32.6201 35.049 32.5738 35.0765 32.5088C35.1042 32.4532 35.1226 32.379 35.1317 32.3048C35.1502 32.2306 35.1594 32.1378 35.1594 32.0451C35.1686 31.9616 35.1686 31.8503 35.1686 31.739ZM40.3958 31.7112C40.3958 31.9523 40.3774 32.1657 40.3406 32.3604C40.3037 32.5552 40.2393 32.7222 40.1473 32.852C40.0553 32.9911 39.9448 33.0932 39.7976 33.1674C39.6503 33.2416 39.4755 33.2787 39.273 33.2787C39.0614 33.2787 38.8865 33.2416 38.7484 33.1766C38.6104 33.1024 38.5 33.0097 38.4172 32.8706C38.3344 32.7407 38.2792 32.5738 38.2515 32.3883C38.2147 32.1935 38.2055 31.9802 38.2055 31.739C38.2055 31.4979 38.2239 31.2845 38.2699 31.0898C38.3067 30.895 38.3711 30.728 38.4632 30.5982C38.5552 30.4591 38.6656 30.357 38.8129 30.2828C38.9601 30.2086 39.1258 30.1715 39.3374 30.1715C39.5491 30.1715 39.724 30.2086 39.862 30.2736C40 30.3478 40.1105 30.4405 40.1933 30.5796C40.2762 30.7095 40.3314 30.8764 40.3589 31.0619C40.3866 31.2474 40.3958 31.47 40.3958 31.7112ZM39.7608 31.739C39.7608 31.5999 39.7608 31.47 39.7516 31.3587C39.7424 31.2474 39.7332 31.1547 39.7148 31.0712C39.6963 30.9877 39.678 30.9228 39.6503 30.8672C39.6227 30.8115 39.5951 30.7651 39.5583 30.7373C39.5215 30.7002 39.4847 30.6817 39.4387 30.6631C39.3927 30.6446 39.3466 30.6446 39.2914 30.6446C39.1994 30.6446 39.1166 30.6631 39.0614 30.7095C38.997 30.7559 38.951 30.8208 38.9141 30.9043C38.8773 30.9877 38.8497 31.099 38.8405 31.2289C38.8221 31.3587 38.8221 31.5164 38.8221 31.6834C38.8221 31.8967 38.8313 32.0729 38.8497 32.212C38.8681 32.3512 38.8957 32.4625 38.9325 32.5459C38.9693 32.6294 39.0154 32.6851 39.0798 32.7222C39.135 32.7593 39.2086 32.7685 39.2914 32.7685C39.3559 32.7685 39.411 32.7593 39.4571 32.7407C39.5031 32.7222 39.5491 32.6943 39.5767 32.6572C39.6136 32.6201 39.6411 32.5738 39.6688 32.5088C39.6963 32.4532 39.7148 32.379 39.724 32.3048C39.7424 32.2306 39.7516 32.1378 39.7516 32.0451C39.7608 31.9616 39.7608 31.8503 39.7608 31.739ZM43.1382 31.7112C43.1382 31.9523 43.1198 32.1657 43.083 32.3604C43.0462 32.5552 42.9818 32.7222 42.8897 32.852C42.7977 32.9911 42.6873 33.0932 42.54 33.1674C42.3928 33.2416 42.2179 33.2787 42.0155 33.2787C41.8038 33.2787 41.6289 33.2416 41.4909 33.1766C41.3529 33.1024 41.2424 33.0097 41.1596 32.8706C41.0768 32.7407 41.0215 32.5738 40.994 32.3883C40.9571 32.1935 40.9479 31.9802 40.9479 31.739C40.9479 31.4979 40.9663 31.2845 41.0124 31.0898C41.0492 30.895 41.1136 30.728 41.2056 30.5982C41.2977 30.4591 41.4081 30.357 41.5553 30.2828C41.7026 30.2086 41.8682 30.1715 42.0799 30.1715C42.2915 30.1715 42.4664 30.2086 42.6045 30.2736C42.7425 30.3478 42.853 30.4405 42.9357 30.5796C43.0185 30.7095 43.0738 30.8764 43.1014 31.0619C43.129 31.2474 43.1382 31.47 43.1382 31.7112ZM42.5124 31.739C42.5124 31.5999 42.5124 31.47 42.5032 31.3587C42.494 31.2474 42.4848 31.1547 42.4664 31.0712C42.448 30.9877 42.4296 30.9228 42.402 30.8672C42.3744 30.8115 42.3467 30.7651 42.31 30.7373C42.2731 30.7002 42.2363 30.6817 42.1904 30.6631C42.1443 30.6446 42.0983 30.6446 42.0431 30.6446C41.9511 30.6446 41.8774 30.6631 41.813 30.7095C41.7486 30.7559 41.7026 30.8208 41.6658 30.9043C41.6289 30.9877 41.6014 31.099 41.5922 31.2289C41.5737 31.3587 41.5737 31.5164 41.5737 31.6834C41.5737 31.8967 41.583 32.0729 41.6014 32.212C41.6197 32.3512 41.6474 32.4625 41.6841 32.5459C41.721 32.6294 41.767 32.6851 41.8314 32.7222C41.8867 32.7593 41.9603 32.7685 42.0431 32.7685C42.1075 32.7685 42.1627 32.7593 42.2087 32.7407C42.2548 32.7222 42.3008 32.6943 42.3284 32.6572C42.3652 32.6201 42.3928 32.5738 42.4204 32.5088C42.448 32.4532 42.4664 32.379 42.4756 32.3048C42.494 32.2306 42.5032 32.1378 42.5032 32.0451C42.5124 31.9616 42.5124 31.8503 42.5124 31.739ZM45.8898 31.7112C45.8898 31.9523 45.8715 32.1657 45.8346 32.3604C45.7979 32.5552 45.7334 32.7222 45.6414 32.852C45.5494 32.9911 45.4389 33.0932 45.2916 33.1674C45.1444 33.2416 44.9696 33.2787 44.7671 33.2787C44.5554 33.2787 44.3806 33.2416 44.2426 33.1766C44.1045 33.1024 43.9941 33.0097 43.9112 32.8706C43.8284 32.7407 43.7732 32.5738 43.7456 32.3883C43.7088 32.1935 43.6996 31.9802 43.6996 31.739C43.6996 31.4979 43.718 31.2845 43.764 31.0898C43.8008 30.895 43.8652 30.728 43.9573 30.5982C44.0493 30.4591 44.1597 30.357 44.307 30.2828C44.4542 30.2086 44.6199 30.1715 44.8316 30.1715C45.0432 30.1715 45.218 30.2086 45.3561 30.2736C45.4942 30.3478 45.6045 30.4405 45.6874 30.5796C45.7702 30.7095 45.8254 30.8764 45.8531 31.0619C45.8715 31.2474 45.8898 31.47 45.8898 31.7112ZM45.2641 31.739C45.2641 31.5999 45.2641 31.47 45.2549 31.3587C45.2456 31.2474 45.2364 31.1547 45.218 31.0712C45.1997 30.9877 45.1812 30.9228 45.1536 30.8672C45.126 30.8115 45.0984 30.7651 45.0616 30.7373C45.0248 30.7002 44.988 30.6817 44.9419 30.6631C44.896 30.6446 44.8499 30.6446 44.7947 30.6446C44.7027 30.6446 44.629 30.6631 44.5646 30.7095C44.5002 30.7559 44.4542 30.8208 44.4174 30.9043C44.3806 30.9877 44.353 31.099 44.3438 31.2289C44.3254 31.3587 44.3254 31.5164 44.3254 31.6834C44.3254 31.8967 44.3345 32.0729 44.353 32.212C44.3714 32.3512 44.399 32.4625 44.4358 32.5459C44.4727 32.6294 44.5186 32.6851 44.583 32.7222C44.6382 32.7593 44.7119 32.7685 44.7947 32.7685C44.8591 32.7685 44.9144 32.7593 44.9604 32.7407C45.0064 32.7222 45.0524 32.6943 45.08 32.6572C45.1168 32.6201 45.1444 32.5738 45.172 32.5088C45.1997 32.4532 45.218 32.379 45.2272 32.3048C45.2456 32.2306 45.2549 32.1378 45.2549 32.0451C45.2641 31.9616 45.2641 31.8503 45.2641 31.739ZM48.6415 31.7112C48.6415 31.9523 48.6231 32.1657 48.5863 32.3604C48.5494 32.5552 48.485 32.7222 48.393 32.852C48.301 32.9911 48.1905 33.0932 48.0433 33.1674C47.8961 33.2416 47.7212 33.2787 47.5187 33.2787C47.3071 33.2787 47.1322 33.2416 46.9942 33.1766C46.8561 33.1024 46.7457 33.0097 46.6629 32.8706C46.5801 32.7407 46.5249 32.5738 46.4972 32.3883C46.4605 32.1935 46.4512 31.9802 46.4512 31.739C46.4512 31.4979 46.4696 31.2845 46.5157 31.0898C46.5524 30.895 46.6168 30.728 46.7089 30.5982C46.8009 30.4591 46.9113 30.357 47.0586 30.2828C47.2058 30.2086 47.3715 30.1715 47.5831 30.1715C47.7948 30.1715 47.9697 30.2086 48.1077 30.2736C48.2457 30.3478 48.3562 30.4405 48.4391 30.5796C48.5219 30.7095 48.5771 30.8764 48.6046 31.0619C48.6231 31.2474 48.6415 31.47 48.6415 31.7112ZM48.0157 31.739C48.0157 31.5999 48.0157 31.47 48.0065 31.3587C47.9973 31.2474 47.9881 31.1547 47.9697 31.0712C47.9513 30.9877 47.9329 30.9228 47.9053 30.8672C47.8776 30.8115 47.8501 30.7651 47.8132 30.7373C47.7764 30.7002 47.7396 30.6817 47.6936 30.6631C47.6476 30.6446 47.6016 30.6446 47.5464 30.6446C47.4543 30.6446 47.3807 30.6631 47.3163 30.7095C47.2519 30.7559 47.2058 30.8208 47.169 30.9043C47.1322 30.9877 47.1046 31.099 47.0954 31.2289C47.077 31.3587 47.077 31.5164 47.077 31.6834C47.077 31.8967 47.0862 32.0729 47.1046 32.212C47.1231 32.3512 47.1506 32.4625 47.1875 32.5459C47.2242 32.6294 47.2703 32.6851 47.3347 32.7222C47.3899 32.7593 47.4635 32.7685 47.5464 32.7685C47.6108 32.7685 47.666 32.7593 47.712 32.7407C47.758 32.7222 47.804 32.6943 47.8316 32.6572C47.8684 32.6201 47.8961 32.5738 47.9237 32.5088C47.9513 32.4532 47.9697 32.379 47.9789 32.3048C47.9973 32.2306 48.0065 32.1378 48.0065 32.0451C48.0065 31.9616 48.0157 31.8503 48.0157 31.739ZM53.2337 31.7112C53.2337 31.9523 53.2153 32.1657 53.1784 32.3604C53.1417 32.5552 53.0773 32.7222 52.9852 32.852C52.8932 32.9911 52.7828 33.0932 52.6355 33.1674C52.4883 33.2416 52.3134 33.2787 52.111 33.2787C51.8993 33.2787 51.7244 33.2416 51.5864 33.1766C51.4484 33.1024 51.3379 33.0097 51.2551 32.8706C51.1723 32.7407 51.117 32.5738 51.0895 32.3883C51.0526 32.1935 51.0434 31.9802 51.0434 31.739C51.0434 31.4979 51.0618 31.2845 51.1078 31.0898C51.1447 30.895 51.2091 30.728 51.3011 30.5982C51.3932 30.4591 51.5036 30.357 51.6508 30.2828C51.798 30.2086 51.9637 30.1715 52.1754 30.1715C52.387 30.1715 52.5619 30.2086 52.6999 30.2736C52.838 30.3478 52.9484 30.4405 53.0312 30.5796C53.114 30.7095 53.1692 30.8764 53.1969 31.0619C53.2245 31.2474 53.2337 31.47 53.2337 31.7112ZM52.6079 31.739C52.6079 31.5999 52.6079 31.47 52.5987 31.3587C52.5895 31.2474 52.5803 31.1547 52.5619 31.0712C52.5435 30.9877 52.5251 30.9228 52.4975 30.8672C52.4699 30.8115 52.4422 30.7651 52.4055 30.7373C52.3686 30.7002 52.3318 30.6817 52.2858 30.6631C52.2398 30.6446 52.1938 30.6446 52.1385 30.6446C52.0466 30.6446 51.9729 30.6631 51.9085 30.7095C51.844 30.7559 51.798 30.8208 51.7613 30.9043C51.7244 30.9877 51.6968 31.099 51.6877 31.2289C51.6692 31.3587 51.6692 31.5164 51.6692 31.6834C51.6692 31.8967 51.6784 32.0729 51.6968 32.212C51.7152 32.3512 51.7428 32.4625 51.7796 32.5459C51.8165 32.6294 51.8625 32.6851 51.9269 32.7222C51.9821 32.7593 52.0558 32.7685 52.1385 32.7685C52.203 32.7685 52.2582 32.7593 52.3042 32.7407C52.3503 32.7222 52.3962 32.6943 52.4239 32.6572C52.4606 32.6201 52.4883 32.5738 52.5158 32.5088C52.5435 32.4532 52.5619 32.379 52.5711 32.3048C52.5895 32.2306 52.5987 32.1378 52.5987 32.0451C52.6079 31.9616 52.6079 31.8503 52.6079 31.739ZM55.9853 31.7112C55.9853 31.9523 55.9669 32.1657 55.9301 32.3604C55.8933 32.5552 55.8289 32.7222 55.7369 32.852C55.6448 32.9911 55.5344 33.0932 55.3871 33.1674C55.2399 33.2416 55.0651 33.2787 54.8626 33.2787C54.6509 33.2787 54.4761 33.2416 54.3381 33.1766C54.1999 33.1024 54.0896 33.0097 54.0067 32.8706C53.9239 32.7407 53.8687 32.5738 53.8411 32.3883C53.8043 32.1935 53.7951 31.9802 53.7951 31.739C53.7951 31.4979 53.8135 31.2845 53.8595 31.0898C53.8963 30.895 53.9607 30.728 54.0527 30.5982C54.1448 30.4591 54.2552 30.357 54.4025 30.2828C54.5497 30.2086 54.7153 30.1715 54.927 30.1715C55.1387 30.1715 55.3135 30.2086 55.4515 30.2736C55.5896 30.3478 55.7 30.4405 55.7829 30.5796C55.8657 30.7095 55.9209 30.8764 55.9485 31.0619C55.9669 31.2474 55.9853 31.47 55.9853 31.7112ZM55.3596 31.739C55.3596 31.5999 55.3596 31.47 55.3503 31.3587C55.3411 31.2474 55.3319 31.1547 55.3135 31.0712C55.2952 30.9877 55.2767 30.9228 55.2491 30.8672C55.2215 30.8115 55.1939 30.7651 55.157 30.7373C55.1203 30.7002 55.0834 30.6817 55.0374 30.6631C54.9914 30.6446 54.9454 30.6446 54.8902 30.6446C54.7981 30.6446 54.7245 30.6631 54.6601 30.7095C54.5957 30.7559 54.5497 30.8208 54.5129 30.9043C54.4761 30.9877 54.4485 31.099 54.4392 31.2289C54.4208 31.3587 54.4208 31.5164 54.4208 31.6834C54.4208 31.8967 54.43 32.0729 54.4485 32.212C54.4669 32.3512 54.4944 32.4625 54.5313 32.5459C54.5681 32.6294 54.6141 32.6851 54.6785 32.7222C54.7337 32.7593 54.8074 32.7685 54.8902 32.7685C54.9546 32.7685 55.0098 32.7593 55.0559 32.7407C55.1018 32.7222 55.1479 32.6943 55.1755 32.6572C55.2123 32.6201 55.2399 32.5738 55.2675 32.5088C55.2952 32.4532 55.3135 32.379 55.3227 32.3048C55.3411 32.2306 55.3503 32.1378 55.3503 32.0451C55.3503 31.9616 55.3596 31.8503 55.3596 31.739ZM58.737 31.7112C58.737 31.9523 58.7186 32.1657 58.6818 32.3604C58.6449 32.5552 58.5805 32.7222 58.4885 32.852C58.3964 32.9911 58.286 33.0932 58.1388 33.1674C57.9915 33.2416 57.8167 33.2787 57.6142 33.2787C57.4026 33.2787 57.2277 33.2416 57.0897 33.1766C56.9516 33.1024 56.8412 33.0097 56.7584 32.8706C56.6755 32.7407 56.6204 32.5738 56.5927 32.3883C56.5559 32.1935 56.5467 31.9802 56.5467 31.739C56.5467 31.4979 56.5651 31.2845 56.6111 31.0898C56.6479 30.895 56.7123 30.728 56.8044 30.5982C56.8964 30.4591 57.0068 30.357 57.1541 30.2828C57.3013 30.2086 57.467 30.1715 57.6786 30.1715C57.8903 30.1715 58.0652 30.2086 58.2032 30.2736C58.3412 30.3478 58.4517 30.4405 58.5345 30.5796C58.6173 30.7095 58.6726 30.8764 58.7001 31.0619C58.7186 31.2474 58.737 31.47 58.737 31.7112ZM58.1112 31.739C58.1112 31.5999 58.1112 31.47 58.1019 31.3587C58.0928 31.2474 58.0836 31.1547 58.0652 31.0712C58.0467 30.9877 58.0283 30.9228 58.0008 30.8672C57.9731 30.8115 57.9456 30.7651 57.9087 30.7373C57.8719 30.7002 57.8351 30.6817 57.7891 30.6631C57.743 30.6446 57.6971 30.6446 57.6419 30.6446C57.5498 30.6446 57.4762 30.6631 57.4118 30.7095C57.3474 30.7559 57.3013 30.8208 57.2645 30.9043C57.2277 30.9877 57.2001 31.099 57.1909 31.2289C57.1725 31.3587 57.1725 31.5164 57.1725 31.6834C57.1725 31.8967 57.1817 32.0729 57.2001 32.212C57.2185 32.3512 57.2461 32.4625 57.283 32.5459C57.3197 32.6294 57.3657 32.6851 57.4302 32.7222C57.4854 32.7593 57.559 32.7685 57.6419 32.7685C57.7063 32.7685 57.7615 32.7593 57.8075 32.7407C57.8535 32.7222 57.8995 32.6943 57.9271 32.6572C57.9639 32.6201 57.9915 32.5738 58.0192 32.5088C58.0467 32.4532 58.0652 32.379 58.0744 32.3048C58.0928 32.2306 58.1019 32.1378 58.1019 32.0451C58.1019 31.9616 58.1112 31.8503 58.1112 31.739ZM61.4794 31.7112C61.4794 31.9523 61.461 32.1657 61.4242 32.3604C61.3874 32.5552 61.323 32.7222 61.2309 32.852C61.1389 32.9911 61.0285 33.0932 60.8812 33.1674C60.734 33.2416 60.5591 33.2787 60.3567 33.2787C60.145 33.2787 59.9701 33.2416 59.8321 33.1766C59.6941 33.1024 59.5836 33.0097 59.5008 32.8706C59.418 32.7407 59.3627 32.5738 59.3352 32.3883C59.2983 32.1935 59.2891 31.9802 59.2891 31.739C59.2891 31.4979 59.3075 31.2845 59.3535 31.0898C59.3904 30.895 59.4548 30.728 59.5468 30.5982C59.6389 30.4591 59.7493 30.357 59.8965 30.2828C60.0438 30.2086 60.2094 30.1715 60.4211 30.1715C60.6327 30.1715 60.8076 30.2086 60.9457 30.2736C61.0837 30.3478 61.1941 30.4405 61.2769 30.5796C61.3598 30.7095 61.4149 30.8764 61.4426 31.0619C61.4702 31.2474 61.4794 31.47 61.4794 31.7112ZM60.8536 31.739C60.8536 31.5999 60.8536 31.47 60.8444 31.3587C60.8352 31.2474 60.826 31.1547 60.8076 31.0712C60.7892 30.9877 60.7708 30.9228 60.7432 30.8672C60.7156 30.8115 60.6879 30.7651 60.6512 30.7373C60.6143 30.7002 60.5775 30.6817 60.5315 30.6631C60.4855 30.6446 60.4395 30.6446 60.3842 30.6446C60.2923 30.6446 60.2186 30.6631 60.1542 30.7095C60.0897 30.7559 60.0438 30.8208 60.007 30.9043C59.9701 30.9877 59.9425 31.099 59.9334 31.2289C59.9149 31.3587 59.9149 31.5164 59.9149 31.6834C59.9149 31.8967 59.9242 32.0729 59.9425 32.212C59.9609 32.3512 59.9886 32.4625 60.0253 32.5459C60.0622 32.6294 60.1082 32.6851 60.1726 32.7222C60.2279 32.7593 60.3015 32.7685 60.3842 32.7685C60.4487 32.7685 60.5039 32.7593 60.5499 32.7407C60.596 32.7222 60.642 32.6943 60.6696 32.6572C60.7064 32.6201 60.734 32.5738 60.7616 32.5088C60.7892 32.4532 60.8076 32.379 60.8168 32.3048C60.8352 32.2306 60.8444 32.1378 60.8444 32.0451C60.8536 31.9616 60.8536 31.8503 60.8536 31.739Z" fill="#F0F3F5"/>
<path d="M31.8464 20.8502H13.496C12.953 20.8502 12.5112 20.405 12.5112 19.8578C12.5112 19.3106 12.953 18.8654 13.496 18.8654H31.8464C32.3893 18.8654 32.831 19.3106 32.831 19.8578C32.831 20.405 32.3893 20.8502 31.8464 20.8502ZM51.4759 25.9978H13.496C12.953 25.9978 12.5112 25.5527 12.5112 25.0054C12.5112 24.4582 12.953 24.013 13.496 24.013H51.4759C52.0189 24.013 52.4607 24.4582 52.4607 25.0054C52.4607 25.5619 52.0189 25.9978 51.4759 25.9978Z" fill="#F0F3F5"/>
<path d="M61.4797 9.6182C61.4797 11.8627 59.6759 13.6806 57.4489 13.6806C55.2218 13.6806 53.418 11.8627 53.418 9.6182C53.418 7.37363 55.2218 5.55573 57.4489 5.55573C59.6759 5.55573 61.4797 7.37363 61.4797 9.6182Z" fill="#F0F3F5"/>
<path d="M56.3537 9.6182C56.3537 11.8627 54.5499 13.6806 52.3228 13.6806C50.0958 13.6806 48.292 11.8627 48.292 9.6182C48.292 7.37363 50.0958 5.55573 52.3228 5.55573C54.5499 5.55573 56.3537 7.37363 56.3537 9.6182Z" fill="#F37970"/>
<path d="M1.4268 50.8036V49.2365H2.65126C2.87027 49.2365 3.05609 49.313 3.20542 49.4627C3.35474 49.6125 3.43107 49.7988 3.43107 50.0217C3.43107 50.2446 3.35474 50.431 3.20542 50.5807C3.05609 50.7304 2.87027 50.8036 2.65126 50.8036H1.4268ZM2.65126 51.4857C3.08928 51.4857 3.45429 51.346 3.74631 51.0632C4.035 50.7837 4.181 50.4343 4.181 50.0217C4.181 49.6091 4.035 49.2598 3.74631 48.9769C3.45429 48.6975 3.08928 48.5544 2.65126 48.5544H1.4268V47.3965H3.80603V46.7144H0.680176V51.4857H2.65126ZM4.72189 51.4857H5.50169L6.01271 50.2247H8.11983L8.63089 51.4857H9.41068L7.43959 46.7144H6.69297L4.72189 51.4857ZM7.06794 47.5662L7.84777 49.5426H6.28482L7.06794 47.5662ZM14.0696 46.7144H13.3229V48.7274H10.9769V46.7144H10.2303V51.4857H10.9769V49.4062H13.3229V51.4857H14.0696V46.7144ZM16.1734 46.7144H15.4268V51.4857H16.1734V50.055L16.92 49.2365L18.4829 51.4857H19.4021L17.4311 48.6908L19.266 46.7144H18.3137L16.1734 49.0335V46.7144ZM20.3545 49.1C20.3545 48.6076 20.5237 48.1884 20.8655 47.8457C21.2073 47.5029 21.6254 47.3299 22.1198 47.3299C22.6142 47.3299 23.0323 47.5029 23.3742 47.8457C23.7159 48.1884 23.8885 48.6076 23.8885 49.1C23.8885 49.5958 23.7159 50.0151 23.3742 50.3578C23.0323 50.7038 22.6142 50.8735 22.1198 50.8735C21.6254 50.8735 21.2073 50.7038 20.8655 50.3578C20.5237 50.0151 20.3545 49.5958 20.3545 49.1ZM19.6079 49.1C19.6079 49.7855 19.8468 50.3677 20.3313 50.8403C20.8124 51.3161 21.4097 51.5523 22.1198 51.5523C22.83 51.5523 23.4273 51.3161 23.9084 50.8403C24.3929 50.3677 24.6318 49.7855 24.6318 49.1C24.6318 48.4146 24.3929 47.8357 23.9084 47.3599C23.4273 46.8874 22.83 46.6479 22.1198 46.6479C21.4097 46.6479 20.8124 46.8874 20.3313 47.3599C19.8468 47.8357 19.6079 48.4146 19.6079 49.1ZM27.7643 51.4857C28.199 51.4857 28.564 51.3493 28.856 51.0732C29.1481 50.8003 29.294 50.4709 29.294 50.0883C29.294 49.9452 29.2675 49.8055 29.2144 49.6724C29.1613 49.5393 29.1049 49.4295 29.0451 49.3463C28.9854 49.2598 28.9125 49.1833 28.8295 49.1134C28.7432 49.0435 28.6868 48.9969 28.6536 48.9769C28.6204 48.957 28.5972 48.9404 28.5806 48.9337L28.7034 48.8372C28.7797 48.774 28.856 48.6642 28.9357 48.5045C29.0153 48.3448 29.0551 48.1685 29.0551 47.9788C29.0551 47.646 28.919 47.3532 28.647 47.1004C28.3748 46.8441 28.0464 46.7177 27.6614 46.7177H25.7269V51.4891L27.7643 51.4857ZM26.4735 50.8403V49.2731H27.7643C27.9866 49.2731 28.1725 49.3463 28.3218 49.4994C28.4711 49.6491 28.5475 49.8354 28.5475 50.0583C28.5475 50.2779 28.4711 50.4643 28.3218 50.614C28.1692 50.7637 27.9833 50.8403 27.7643 50.8403H26.4735ZM27.6614 47.3666C27.8473 47.3666 27.9999 47.4265 28.1227 47.5496C28.2454 47.6727 28.3085 47.8257 28.3085 48.012C28.3085 48.1984 28.2454 48.3515 28.1227 48.4745C27.9999 48.5976 27.8473 48.6608 27.6614 48.6608H26.4735V47.3666H27.6614ZM32.6223 46.6479C31.9089 46.6479 31.3116 46.8874 30.8304 47.3599C30.346 47.8357 30.107 48.4146 30.107 49.1C30.107 49.7855 30.346 50.3677 30.8304 50.8403C31.3116 51.3161 31.9089 51.5523 32.6223 51.5523C32.8612 51.5523 33.0936 51.519 33.3192 51.4525C33.5448 51.3859 33.7306 51.3094 33.87 51.2262C34.0094 51.1397 34.1421 51.0432 34.2682 50.9367C34.3943 50.8269 34.474 50.7504 34.5104 50.7072C34.547 50.6639 34.5735 50.6306 34.5901 50.604L34.1123 50.1248L34.0592 50.208C34.0193 50.2579 33.9563 50.3178 33.87 50.391C33.7837 50.4643 33.6875 50.5375 33.5747 50.6106C33.4619 50.6838 33.3225 50.7437 33.1533 50.797C32.984 50.8502 32.8048 50.8768 32.619 50.8768C32.1246 50.8768 31.7064 50.7038 31.3647 50.3611C31.0229 50.0151 30.8504 49.5958 30.8504 49.1034C30.8504 48.6076 31.0229 48.1884 31.3647 47.8457C31.7098 47.5029 32.1279 47.3333 32.619 47.3333C32.8048 47.3333 32.984 47.3566 33.15 47.4098C33.3159 47.463 33.4519 47.5196 33.5548 47.5795C33.6609 47.6394 33.7572 47.7126 33.8468 47.7958C33.9397 47.8823 33.9961 47.9388 34.0226 47.9721C34.0492 48.0054 34.0658 48.0287 34.079 48.0453L34.5536 47.5662L34.4806 47.473C34.4308 47.4098 34.3512 47.3333 34.2417 47.2435C34.1354 47.1569 34.0094 47.0671 33.8634 46.9739C33.7173 46.8841 33.5348 46.8076 33.3125 46.7443C33.0936 46.6811 32.8612 46.6479 32.6223 46.6479ZM36.2891 46.7144H35.5424V51.4857H36.2891V50.055L37.0357 49.2365L38.5986 51.4857H39.5178L37.5467 48.6908L39.3817 46.7144H38.4294L36.2891 49.0335V46.7144ZM39.7235 51.4857H40.5033L41.0143 50.2247H43.1215L43.6325 51.4857H44.4123L42.4413 46.7144H41.6946L39.7235 51.4857ZM42.0696 47.5662L42.8494 49.5426H41.2865L42.0696 47.5662ZM48.5602 46.7144H46.556C46.1179 46.7144 45.7529 46.8575 45.4609 47.1403C45.1689 47.4231 45.0262 47.7691 45.0262 48.1817C45.0262 48.378 45.0593 48.561 45.129 48.7307C45.1954 48.9004 45.2718 49.0335 45.358 49.1267C45.441 49.2232 45.5373 49.3097 45.6467 49.3862C45.7529 49.466 45.8293 49.5159 45.8724 49.5359C45.9155 49.5559 45.952 49.5725 45.9785 49.5792L44.8901 51.4857H45.7065L46.7252 49.6457H47.8136V51.4857H48.5602V46.7144ZM45.7762 48.1817C45.7762 47.9588 45.8491 47.7725 45.9985 47.6227C46.1478 47.473 46.3336 47.3965 46.556 47.3965H47.8136V48.9636H46.556C46.3336 48.9636 46.1478 48.8905 45.9985 48.7407C45.8491 48.591 45.7762 48.4047 45.7762 48.1817ZM52.0311 46.7144H51.2846V51.4857H52.0311V50.055L52.7778 49.2365L54.3407 51.4857H55.2599L53.2888 48.6908L55.1239 46.7144H54.1715L52.0311 49.0335V46.7144ZM55.4656 51.4857H56.2454L56.7565 50.2247H58.8636L59.3746 51.4857H60.1544L58.1833 46.7144H57.4367L55.4656 51.4857ZM57.8117 47.5662L58.5915 49.5426H57.0285L57.8117 47.5662ZM60.974 46.7144V51.4857H61.7207V49.7822H62.8755C63.3267 49.7822 63.7083 49.6357 64.0136 49.3363C64.3189 49.0402 64.4748 48.6775 64.4748 48.2516C64.4748 47.8257 64.3189 47.463 64.0136 47.1636C63.7083 46.8641 63.3267 46.7177 62.8755 46.7177L60.974 46.7144ZM62.8755 47.3998C63.1077 47.3998 63.3102 47.4797 63.4761 47.646C63.642 47.809 63.7249 48.012 63.7249 48.2516C63.7249 48.4912 63.642 48.6941 63.4761 48.8572C63.3102 49.0202 63.1077 49.1 62.8755 49.1H61.7207V47.3965L62.8755 47.3998ZM65.0158 46.7144V47.3965H66.4426V51.4857H67.1893V47.3965H68.6161V46.7144H65.0158ZM68.48 51.4857H69.2599L69.7709 50.2247H71.878L72.3891 51.4857H73.1689L71.1978 46.7144H70.4512L68.48 51.4857ZM70.8261 47.5662L71.6059 49.5426H70.043L70.8261 47.5662Z" fill="white"/>
</svg>
