<svg width="23" height="22" viewBox="0 0 23 22" fill="none" xmlns="http://www.w3.org/2000/svg">
<g clip-path="url(#clip0_70_263)">
<path d="M13.4992 0.190246C13.3671 0.165921 13.2311 0.170957 13.1011 0.204997C12.9711 0.239038 12.8502 0.30125 12.7469 0.387228C12.6436 0.473205 12.5605 0.580844 12.5034 0.702521C12.4463 0.824197 12.4167 0.956934 12.4166 1.09133V3.73041C11.3068 3.58317 10.1779 3.6935 9.11751 4.05285C8.05715 4.41221 7.09378 5.01093 6.3021 5.80261C5.51042 6.5943 4.91169 7.55766 4.55233 8.61803C4.19298 9.6784 4.08265 10.8073 4.2299 11.9172H1.59081C1.45642 11.9172 1.32368 11.9468 1.202 12.0039C1.08033 12.061 0.972688 12.1441 0.88671 12.2474C0.800733 12.3507 0.73852 12.4716 0.70448 12.6016C0.670439 12.7317 0.665404 12.8676 0.689729 12.9997C1.05274 14.972 1.94798 16.8074 3.27864 18.3077C4.60931 19.8079 6.32478 20.9159 8.23956 21.5117C10.1543 22.1076 12.1956 22.1687 14.1426 21.6884C16.0895 21.2081 17.8682 20.2047 19.2862 18.7867C20.7042 17.3687 21.7076 15.5901 22.1879 13.6431C22.6681 11.6961 22.6071 9.65485 22.0112 7.74007C21.4154 5.82529 20.3074 4.10983 18.8072 2.77916C17.3069 1.44849 15.4714 0.553256 13.4992 0.190246ZM11.5 12.8338C11.1795 12.8329 10.8648 12.7478 10.5876 12.5869C10.3104 12.426 10.0803 12.195 9.92056 11.9172H7.83331C7.5902 11.9172 7.35704 11.8206 7.18513 11.6487C7.01322 11.4768 6.91665 11.2436 6.91665 11.0005C6.91665 10.7574 7.01322 10.5242 7.18513 10.3523C7.35704 10.1804 7.5902 10.0838 7.83331 10.0838H9.92056C10.0803 9.80922 10.3087 9.58084 10.5833 9.42108V6.41716C10.5833 6.17405 10.6799 5.94089 10.8518 5.76898C11.0237 5.59707 11.2569 5.5005 11.5 5.5005C11.7431 5.5005 11.9763 5.59707 12.1482 5.76898C12.3201 5.94089 12.4166 6.17405 12.4166 6.41716V9.42108C12.7663 9.62194 13.0397 9.93279 13.1943 10.3052C13.3489 10.6776 13.376 11.0907 13.2714 11.4802C13.1668 11.8696 12.9364 12.2135 12.616 12.4583C12.2956 12.7032 11.9032 12.8352 11.5 12.8338ZM9.64098 0.0921631C9.82228 0.0921631 9.99951 0.145925 10.1503 0.246649C10.301 0.347374 10.4185 0.490538 10.4879 0.658037C10.5573 0.825535 10.5754 1.00985 10.54 1.18766C10.5047 1.36548 10.4174 1.52881 10.2892 1.65701C10.161 1.78521 9.99763 1.87251 9.81981 1.90788C9.642 1.94325 9.45769 1.9251 9.29019 1.85572C9.12269 1.78634 8.97952 1.66885 8.8788 1.5181C8.77808 1.36736 8.72431 1.19013 8.72431 1.00883C8.72431 0.765715 8.82089 0.532557 8.9928 0.360649C9.16471 0.18874 9.39787 0.0921631 9.64098 0.0921631ZM5.88265 1.70183C6.06395 1.70183 6.24117 1.75559 6.39192 1.85632C6.54266 1.95704 6.66016 2.1002 6.72954 2.2677C6.79892 2.4352 6.81707 2.61951 6.7817 2.79733C6.74633 2.97515 6.65903 3.13848 6.53083 3.26668C6.40263 3.39488 6.2393 3.48218 6.06148 3.51755C5.88366 3.55292 5.69935 3.53477 5.53185 3.46539C5.36435 3.39601 5.22119 3.27851 5.12047 3.12777C5.01974 2.97702 4.96598 2.7998 4.96598 2.6185C4.96549 2.37554 5.06148 2.14233 5.23284 1.9701C5.40421 1.79788 5.63694 1.70072 5.8799 1.7L5.88265 1.70183ZM3.0474 4.43808C3.2287 4.43808 3.40592 4.49184 3.55667 4.59257C3.70741 4.69329 3.82491 4.83645 3.89429 5.00395C3.96367 5.17145 3.98182 5.35576 3.94645 5.53358C3.91108 5.7114 3.82378 5.87473 3.69558 6.00293C3.56738 6.13113 3.40404 6.21843 3.22623 6.2538C3.04841 6.28917 2.8641 6.27102 2.6966 6.20164C2.5291 6.13226 2.38594 6.01476 2.28522 5.86402C2.18449 5.71327 2.13073 5.53605 2.13073 5.35475C2.13073 5.11163 2.22731 4.87847 2.39921 4.70656C2.57112 4.53466 2.80428 4.43808 3.0474 4.43808ZM1.58073 8.25783C1.76203 8.25783 1.93926 8.31159 2.09 8.41232C2.24075 8.51304 2.35824 8.6562 2.42762 8.8237C2.497 8.9912 2.51515 9.17551 2.47978 9.35333C2.44441 9.53115 2.35711 9.69448 2.22891 9.82268C2.10071 9.95088 1.93738 10.0382 1.75956 10.0735C1.58175 10.1089 1.39744 10.0908 1.22994 10.0214C1.06244 9.95201 0.919273 9.83451 0.818549 9.68377C0.717824 9.53302 0.664063 9.3558 0.664063 9.1745C0.664062 8.9317 0.760387 8.69882 0.931899 8.52696C1.10341 8.35511 1.3361 8.25832 1.5789 8.25783H1.58073Z" fill="white"/>
</g>
<defs>
<clipPath id="clip0_70_263">
<rect width="22" height="22" fill="white" transform="translate(0.5)"/>
</clipPath>
</defs>
</svg>
