<svg width="23" height="22" viewBox="0 0 23 22" fill="none" xmlns="http://www.w3.org/2000/svg">
<g clip-path="url(#clip0_70_257)">
<path d="M22.5 8.25C22.3813 8.91559 22.1168 9.54667 21.7254 10.098L13.6743 20.933C13.4191 21.2628 13.0922 21.5302 12.7184 21.715C12.3445 21.8998 11.9336 21.9971 11.5166 21.9997C11.0995 22.0023 10.6874 21.91 10.3113 21.7298C9.93528 21.5496 9.60511 21.2862 9.34583 20.9596L1.25533 9.9C0.911657 9.40201 0.669045 8.84142 0.54125 8.25H6.28692L10.6438 19.5791C10.7101 19.7524 10.8275 19.9015 10.9804 20.0067C11.1332 20.1119 11.3144 20.1683 11.5 20.1683C11.6856 20.1683 11.8668 20.1119 12.0196 20.0067C12.1725 19.9015 12.2899 19.7524 12.3562 19.5791L16.7131 8.25H22.5ZM16.725 6.41667H22.4606C22.3211 5.79646 22.0536 5.21227 21.675 4.70159L19.3302 1.53542C18.9906 1.06082 18.5428 0.67398 18.0239 0.406962C17.505 0.139945 16.93 0.000436916 16.3464 1.77245e-06H14.3298L16.725 6.41667ZM10.6823 1.77245e-06L8.24492 6.41667H14.7642L12.3754 1.77245e-06H10.6823ZM6.28417 6.41667L8.72067 1.77245e-06H6.59217C6.01355 -0.000567813 5.44306 0.13615 4.92755 0.398923C4.41204 0.661696 3.96623 1.04303 3.62675 1.51159L1.35983 4.48342C0.926071 5.05178 0.631583 5.71391 0.5 6.41667H6.28417ZM14.7487 8.25H8.25133L11.5 16.6962L14.7487 8.25Z" fill="white"/>
</g>
<defs>
<clipPath id="clip0_70_257">
<rect width="22" height="22" fill="white" transform="translate(0.5)"/>
</clipPath>
</defs>
</svg>
