<svg width="30" height="28" viewBox="0 0 30 28" fill="none" xmlns="http://www.w3.org/2000/svg">
<g clip-path="url(#clip0_63_103)">
<path d="M20.8582 9.35736C20.6867 9.3043 20.531 9.20956 20.405 9.08163C20.279 8.95369 20.1867 8.79653 20.1363 8.62419C19.6072 6.92341 18.526 5.44785 17.0639 4.43125C15.6018 3.41465 13.8424 2.91512 12.0644 3.0118C10.2865 3.10848 8.5916 3.79584 7.24828 4.965C5.90495 6.13415 4.98998 7.71826 4.6483 9.46638C4.29679 11.2335 4.58007 13.068 5.4482 14.6466C4.43696 15.1689 3.61465 15.9949 3.09674 17.0087C2.57883 18.0225 2.39133 19.1731 2.56058 20.2989C2.82119 21.607 3.52126 22.7866 4.54453 23.6418C5.5678 24.4969 6.85269 24.9762 8.18584 25H17.2846C22.357 25 26.1345 21.9723 26.4724 17.6363C26.6237 15.8222 26.149 14.011 25.1274 12.5046C24.1059 10.9981 22.5991 9.88734 20.8582 9.35736ZM21.1661 20.746L19.5803 22.1603C19.3086 22.4294 18.9864 22.6421 18.6323 22.7861C18.2781 22.9301 17.8989 23.0027 17.5166 22.9995C17.1201 23.0003 16.7273 22.9228 16.3608 22.7714C15.9943 22.62 15.6613 22.3977 15.3809 22.1173L13.8371 20.743C13.739 20.6557 13.6591 20.5498 13.6019 20.4316C13.5447 20.3133 13.5113 20.185 13.5037 20.0538C13.4883 19.789 13.5788 19.5288 13.7551 19.3307C13.9314 19.1325 14.1793 19.0126 14.444 18.9972C14.5751 18.9896 14.7064 19.0078 14.8305 19.051C14.9545 19.0941 15.0688 19.1613 15.1669 19.2487L16.5017 20.4429V12.9972C16.5017 12.7319 16.6071 12.4775 16.7946 12.2899C16.9821 12.1024 17.2364 11.997 17.5016 11.997C17.7668 11.997 18.0211 12.1024 18.2086 12.2899C18.3961 12.4775 18.5015 12.7319 18.5015 12.9972V20.4439L19.8363 19.2517C20.0344 19.0753 20.2944 18.9848 20.5592 19.0002C20.824 19.0156 21.0718 19.1355 21.2481 19.3337C21.4245 19.5318 21.5149 19.792 21.4995 20.0568C21.4841 20.3217 21.3642 20.5696 21.1661 20.746Z" fill="white"/>
</g>
<defs>
<clipPath id="clip0_63_103">
<rect width="24" height="24" fill="white" transform="translate(2.5 2)"/>
</clipPath>
</defs>
</svg>
