<svg width="96" height="96" viewBox="0 0 96 96" fill="none" xmlns="http://www.w3.org/2000/svg">
<rect width="96" height="96" rx="48" fill="#7289DA"/>
<path d="M69.666 33.664C65.7028 30.5919 60.9468 29.056 55.9266 28.8L55.1339 29.568C59.6256 30.5919 63.589 32.6399 67.288 35.4559C62.7963 33.152 57.7761 31.616 52.4917 31.104C50.9064 30.848 49.5852 30.848 48 30.848C46.4147 30.848 45.0935 30.848 43.5082 31.104C38.2238 31.616 33.2036 33.152 28.7119 35.4559C32.4109 32.6399 36.3743 30.5919 40.866 29.568L40.0733 28.8C35.0531 29.056 30.2971 30.5919 26.3339 33.664C21.8422 41.8561 19.4642 51.072 19.2 60.5439C23.1632 64.64 28.7119 67.2 34.5248 67.2C34.5248 67.2 36.3743 65.152 37.6953 63.3599C34.2606 62.592 31.0899 60.7999 28.9761 57.984C30.8256 59.0079 32.6751 60.032 34.5248 60.7999C36.9028 61.8239 39.2808 62.336 41.6587 62.848C43.7725 63.1039 45.8862 63.3599 48 63.3599C50.1137 63.3599 52.2274 63.1039 54.3412 62.848C56.7192 62.336 59.0971 61.8239 61.4751 60.7999C63.3248 60.032 65.1743 59.0079 67.0238 57.984C64.9101 60.7999 61.7393 62.592 58.3046 63.3599C59.6256 65.152 61.4751 67.2 61.4751 67.2C67.288 67.2 72.8367 64.64 76.7999 60.5439C76.5357 51.072 74.1577 41.8561 69.666 33.664ZM39.2808 55.9359C36.6385 55.9359 34.2606 53.6319 34.2606 50.816C34.2606 48 36.6385 45.696 39.2808 45.696C41.923 45.696 44.3009 48 44.3009 50.816C44.3009 53.6319 41.923 55.9359 39.2808 55.9359ZM56.7192 55.9359C54.0769 55.9359 51.699 53.6319 51.699 50.816C51.699 48 54.0769 45.696 56.7192 45.696C59.3614 45.696 61.7393 48 61.7393 50.816C61.7393 53.6319 59.3614 55.9359 56.7192 55.9359Z" fill="white"/>
</svg>
