<svg width="44" height="40" viewBox="0 0 44 40" fill="none" xmlns="http://www.w3.org/2000/svg">
<path d="M33.6567 11.5588C33.3422 11.4624 33.0568 11.2901 32.8259 11.0575C32.5949 10.8249 32.4256 10.5391 32.3332 10.2258C31.3632 7.13348 29.3809 4.45064 26.7004 2.60227C24.0199 0.753901 20.7944 -0.154327 17.5348 0.021456C14.2752 0.197239 11.1679 1.44698 8.70517 3.57272C6.2424 5.69846 4.56496 8.57865 3.93855 11.7571C3.29412 14.9699 3.81345 18.3054 5.40503 21.1756C3.55109 22.1253 2.04352 23.6272 1.09402 25.4704C0.144519 27.3136 -0.199226 29.4056 0.111054 31.4526C0.588852 33.8309 1.87232 35.9756 3.74831 37.5305C5.6243 39.0853 7.97994 39.9567 10.424 40H27.1052C36.4045 40 43.3299 34.4951 43.9495 26.6114C44.2268 23.3131 43.3566 20.02 41.4837 17.281C39.6107 14.542 36.8483 12.5224 33.6567 11.5588ZM34.2212 32.2655L31.314 34.837C30.8158 35.3262 30.2251 35.7129 29.5758 35.9747C28.9265 36.2366 28.2314 36.3685 27.5305 36.3628C26.8035 36.3642 26.0835 36.2233 25.4115 35.948C24.7396 35.6728 24.1291 35.2686 23.615 34.7588L20.7847 32.26C20.6049 32.1012 20.4583 31.9088 20.3534 31.6938C20.2486 31.4788 20.1874 31.2454 20.1735 31.007C20.1453 30.5254 20.3111 30.0524 20.6344 29.6921C20.9577 29.3319 21.412 29.1137 21.8974 29.0858C22.1377 29.0719 22.3785 29.1052 22.6059 29.1836C22.8333 29.2621 23.0429 29.3842 23.2227 29.543L25.6699 31.7144V18.1767C25.6699 17.6944 25.863 17.2318 26.2068 16.8908C26.5505 16.5497 27.0168 16.3581 27.503 16.3581C27.9891 16.3581 28.4554 16.5497 28.7991 16.8908C29.1429 17.2318 29.3361 17.6944 29.3361 18.1767V31.7163L31.7832 29.5485C32.1464 29.2277 32.6231 29.0633 33.1085 29.0912C33.5939 29.1192 34.0483 29.3373 34.3716 29.6976C34.6949 30.0579 34.8606 30.5309 34.8325 31.0124C34.8043 31.494 34.5844 31.9447 34.2212 32.2655Z" fill="white"/>
</svg>
