<svg width="40" height="40" viewBox="0 0 40 40" fill="none" xmlns="http://www.w3.org/2000/svg">
<g clip-path="url(#clip0_70_17)">
<path d="M23.3335 11.6667V0.766667C24.8753 1.34889 26.2756 2.25219 27.4418 3.41667L33.2485 9.22667C34.4143 10.3915 35.3183 11.7915 35.9002 13.3333H25.0002C24.5581 13.3333 24.1342 13.1577 23.8217 12.8452C23.5091 12.5326 23.3335 12.1087 23.3335 11.6667ZM36.6668 17.475V31.6667C36.6642 33.876 35.7854 35.9941 34.2231 37.5563C32.6609 39.1185 30.5428 39.9974 28.3335 40H11.6668C9.4575 39.9974 7.33943 39.1185 5.7772 37.5563C4.21497 35.9941 3.33614 33.876 3.3335 31.6667V8.33333C3.33614 6.12401 4.21497 4.00593 5.7772 2.4437C7.33943 0.88147 9.4575 0.00264643 11.6668 0L19.1918 0C19.4635 0 19.7318 0.0216667 20.0002 0.04V11.6667C20.0002 12.9927 20.5269 14.2645 21.4646 15.2022C22.4023 16.1399 23.6741 16.6667 25.0002 16.6667H36.6268C36.6452 16.935 36.6668 17.2033 36.6668 17.475ZM26.6668 28.3333C26.6668 27.8913 26.4912 27.4674 26.1787 27.1548C25.8661 26.8423 25.4422 26.6667 25.0002 26.6667H21.6668V23.3333C21.6668 22.8913 21.4912 22.4674 21.1787 22.1548C20.8661 21.8423 20.4422 21.6667 20.0002 21.6667C19.5581 21.6667 19.1342 21.8423 18.8217 22.1548C18.5091 22.4674 18.3335 22.8913 18.3335 23.3333V26.6667H15.0002C14.5581 26.6667 14.1342 26.8423 13.8217 27.1548C13.5091 27.4674 13.3335 27.8913 13.3335 28.3333C13.3335 28.7754 13.5091 29.1993 13.8217 29.5118C14.1342 29.8244 14.5581 30 15.0002 30H18.3335V33.3333C18.3335 33.7754 18.5091 34.1993 18.8217 34.5118C19.1342 34.8244 19.5581 35 20.0002 35C20.4422 35 20.8661 34.8244 21.1787 34.5118C21.4912 34.1993 21.6668 33.7754 21.6668 33.3333V30H25.0002C25.4422 30 25.8661 29.8244 26.1787 29.5118C26.4912 29.1993 26.6668 28.7754 26.6668 28.3333Z" fill="white"/>
</g>
<defs>
<clipPath id="clip0_70_17">
<rect width="40" height="40" fill="white"/>
</clipPath>
</defs>
</svg>
