<svg width="145" height="30" viewBox="0 0 145 30" fill="none" xmlns="http://www.w3.org/2000/svg">
<path fill-rule="evenodd" clip-rule="evenodd" d="M31.3053 28.8324C32.9012 29.4484 34.5532 29.7564 36.2612 29.7564C37.9692 29.7564 39.6073 29.4484 41.1753 28.8324C42.7713 28.1884 44.1852 27.2644 45.4172 26.0604C46.6772 24.8284 47.6712 23.3024 48.3993 21.4824C49.1273 19.6344 49.4912 17.5204 49.4912 15.1404C49.4912 12.7044 49.1273 10.5764 48.3993 8.75641C47.6712 6.90841 46.6772 5.38241 45.4172 4.17841C44.1852 2.94641 42.7713 2.03641 41.1753 1.44841C39.6073 0.832414 37.9692 0.524414 36.2612 0.524414C34.5812 0.524414 32.9432 0.846414 31.3472 1.49041C29.7792 2.10641 28.3652 3.03041 27.1052 4.26241C25.8452 5.46641 24.8512 6.97842 24.1232 8.79841C23.3952 10.6184 23.0312 12.7324 23.0312 15.1404C23.0312 17.5764 23.3952 19.7044 24.1232 21.5244C24.8512 23.3444 25.8312 24.8704 27.0632 26.1024C28.3232 27.3064 29.7372 28.2164 31.3053 28.8324ZM39.9992 27.6564C39.0472 28.4684 37.8013 28.8744 36.2612 28.8744C34.7492 28.8744 33.5173 28.4684 32.5653 27.6564C31.6133 26.8164 30.9132 25.4024 30.4653 23.4144C30.0452 21.3984 29.8352 18.6404 29.8352 15.1404C29.8352 11.6124 30.0452 8.85441 30.4653 6.86642C30.9132 4.85041 31.6133 3.43641 32.5653 2.62441C33.5173 1.78441 34.7492 1.36441 36.2612 1.36441C37.8013 1.36441 39.0472 1.78441 39.9992 2.62441C40.9512 3.43641 41.6373 4.85041 42.0573 6.86642C42.5053 8.85441 42.7292 11.6124 42.7292 15.1404C42.7292 18.6404 42.5053 21.3984 42.0573 23.4144C41.6373 25.4024 40.9512 26.8164 39.9992 27.6564Z" fill="white"/>
<path d="M0.925781 28.5804V29.0004H12.3498V28.5804L11.0898 28.2024C10.0258 27.8664 9.49378 27.1524 9.49378 26.0604C9.46578 24.3524 9.45178 22.6164 9.45178 20.8524V15.2244H13.8198C14.4638 15.2244 14.9258 15.3784 15.2058 15.6864C15.5138 15.9944 15.8078 16.4004 16.0878 16.9044L17.0118 18.5004H17.4318V11.1504H17.0118L16.1298 12.7464C15.8498 13.2784 15.5558 13.6844 15.2478 13.9644C14.9398 14.2444 14.4638 14.3844 13.8198 14.3844H9.45178V8.2104C9.45178 6.1384 9.46578 4.1084 9.49378 2.1204H16.2558C16.8998 2.1204 17.4038 2.2744 17.7678 2.58241C18.1318 2.8904 18.4538 3.3104 18.7338 3.8424L21.1278 8.2524H21.5478L21.2538 1.2804H0.925781V1.7004L1.84978 2.0364C2.38178 2.2324 2.71778 2.4984 2.85778 2.8344C3.02578 3.17041 3.10978 3.61841 3.10978 4.1784C3.13778 5.8584 3.15178 7.5524 3.15178 9.2604V21.1044C3.15178 22.8124 3.13778 24.5064 3.10978 26.1864C3.10978 26.7464 3.01178 27.1944 2.81578 27.5304C2.61978 27.8664 2.24178 28.1324 1.68178 28.3284L0.925781 28.5804Z" fill="white"/>
<path fill-rule="evenodd" clip-rule="evenodd" d="M50.5547 29.0004V28.5804L51.4367 28.2864C51.9967 28.0904 52.3607 27.8384 52.5287 27.5304C52.6967 27.1944 52.7807 26.7324 52.7807 26.1444V4.1784C52.7807 3.61841 52.6967 3.1844 52.5287 2.8764C52.3887 2.5404 52.0527 2.2744 51.5207 2.0784L50.5547 1.7004V1.2804H62.5667C65.8707 1.2804 68.4047 1.9104 70.1687 3.1704C71.9327 4.4024 72.8147 6.1244 72.8147 8.3364C72.8147 9.5684 72.3527 10.8004 71.4287 12.0324C70.5047 13.2644 69.0487 14.2164 67.0607 14.8884L72.8987 26.4804C73.1507 26.9564 73.4307 27.3484 73.7387 27.6564C74.0747 27.9364 74.5087 28.1884 75.0407 28.4124L75.5867 28.6224V29.0004H68.0687L61.8527 15.7704H58.9967V26.1444C58.9967 26.6764 59.0807 27.1104 59.2487 27.4464C59.4167 27.7824 59.7667 28.0344 60.2987 28.2024L61.3067 28.5804V29.0004H50.5547ZM58.9967 14.9304H61.0127C63.0287 14.9304 64.4847 14.3984 65.3807 13.3344C66.2767 12.2424 66.7247 10.6324 66.7247 8.5044C66.7247 6.34841 66.3047 4.7524 65.4647 3.7164C64.6247 2.6524 63.2107 2.1204 61.2227 2.1204H58.9967V14.9304Z" fill="white"/>
<path fill-rule="evenodd" clip-rule="evenodd" d="M76.9277 28.5804V29.0004H87.5957C90.0877 29.0004 92.1457 28.7764 93.7697 28.3284C95.3937 27.8524 96.6677 27.2364 97.5917 26.4804C98.5437 25.7244 99.2157 24.8984 99.6077 24.0024C99.9997 23.0784 100.196 22.1684 100.196 21.2724C100.196 19.4524 99.4817 17.9124 98.0537 16.6524C96.6257 15.3644 94.3717 14.5524 91.2917 14.2164C93.9797 13.7404 95.8697 12.9284 96.9617 11.7804C98.0817 10.6044 98.6417 9.30239 98.6417 7.8744C98.6417 5.9704 97.8857 4.4024 96.3737 3.1704C94.8617 1.9104 92.3977 1.2804 88.9817 1.2804H76.9277V1.7004L77.6837 1.99441C78.2437 2.1904 78.6217 2.4564 78.8177 2.7924C79.0417 3.1284 79.1537 3.5904 79.1537 4.1784V26.1024C79.1537 26.6624 79.0417 27.1104 78.8177 27.4464C78.6217 27.7824 78.2437 28.0624 77.6837 28.2864L76.9277 28.5804ZM87.1757 14.1744H85.3697V2.1204H87.6377C89.3457 2.1204 90.5777 2.5964 91.3337 3.54841C92.0897 4.5004 92.4677 6.0964 92.4677 8.3364C92.4677 10.4924 92.0477 12.0044 91.2077 12.8724C90.3957 13.7404 89.0517 14.1744 87.1757 14.1744ZM87.4697 28.1604H85.3697V15.0144H87.3857C89.6257 15.0144 91.2357 15.4904 92.2157 16.4424C93.1957 17.3944 93.6857 18.9904 93.6857 21.2304C93.6857 23.6104 93.1677 25.3604 92.1317 26.4804C91.1237 27.6004 89.5697 28.1604 87.4697 28.1604Z" fill="white"/>
<path d="M101.332 29.0004V28.5804L102.298 28.2024C102.774 28.0064 103.096 27.7544 103.264 27.4464C103.46 27.1104 103.558 26.6624 103.558 26.1024V4.1784C103.558 3.61841 103.474 3.1844 103.306 2.8764C103.166 2.5404 102.83 2.2744 102.298 2.0784L101.332 1.7004V1.2804H121.45L121.702 7.7484H121.282L119.476 3.8004C119.224 3.2964 118.958 2.8904 118.678 2.58241C118.398 2.2744 117.978 2.1204 117.418 2.1204H109.858V14.2584H114.352C114.912 14.2584 115.332 14.1184 115.612 13.8384C115.92 13.5304 116.186 13.1244 116.41 12.6204L117.25 10.9404H117.67V18.5004H117.25L116.41 16.7364C116.158 16.2324 115.892 15.8404 115.612 15.5604C115.332 15.2524 114.912 15.0984 114.352 15.0984H109.858V28.1604H118.342C118.902 28.1604 119.336 28.0204 119.644 27.7404C119.952 27.4324 120.204 27.0124 120.4 26.4804L122.122 22.5324H122.542L122.29 29.0004H101.332Z" fill="white"/>
<path d="M128.955 29.1684C130.551 29.5604 132.119 29.7564 133.659 29.7564C137.075 29.7564 139.707 28.9864 141.555 27.4464C143.431 25.8784 144.369 23.8624 144.369 21.3984C144.369 19.2984 143.781 17.5904 142.605 16.2744C141.429 14.9304 139.497 13.6704 136.809 12.4944L134.877 11.6544C133.421 10.9824 132.315 10.2264 131.559 9.38642C130.803 8.51841 130.425 7.37041 130.425 5.94241C130.425 4.54241 130.915 3.43641 131.895 2.62441C132.875 1.78441 134.079 1.36441 135.507 1.36441C135.983 1.36441 136.375 1.39241 136.683 1.44841C136.991 1.47641 137.327 1.54641 137.691 1.65841C138.307 1.82641 138.853 2.12041 139.329 2.54041C139.805 2.93241 140.281 3.61841 140.757 4.59841L142.479 7.74841H142.899L143.151 2.70841C142.171 2.03641 141.009 1.50441 139.665 1.11241C138.349 0.720414 136.949 0.524414 135.465 0.524414C133.421 0.524414 131.629 0.846414 130.089 1.49041C128.577 2.13441 127.387 3.05841 126.519 4.26241C125.679 5.46641 125.259 6.89441 125.259 8.54641C125.259 10.8424 125.931 12.6904 127.275 14.0904C128.647 15.4624 130.537 16.6804 132.945 17.7444L134.667 18.5004C136.151 19.2284 137.229 19.9844 137.901 20.7684C138.573 21.5244 138.909 22.5884 138.909 23.9604C138.909 25.4164 138.405 26.6064 137.397 27.5304C136.417 28.4544 135.073 28.9164 133.365 28.9164C132.721 28.9164 132.133 28.8744 131.601 28.7904C131.097 28.6784 130.565 28.4824 130.005 28.2024C129.221 27.8664 128.605 27.4044 128.157 26.8164C127.709 26.2004 127.289 25.5004 126.897 24.7164L125.595 21.9864H125.175L124.965 27.6984C126.029 28.3144 127.359 28.8044 128.955 29.1684Z" fill="white"/>
</svg>
