<svg width="301" height="110" viewBox="0 0 301 110" fill="none" xmlns="http://www.w3.org/2000/svg">
<path d="M2.51452 6.74627C1.29674 3.47905 3.71286 0 7.19966 0H276.528C278.616 0 280.484 1.29733 281.213 3.25372L299.849 53.2537C300.269 54.3801 300.269 55.6199 299.849 56.7463L281.213 106.746C280.484 108.703 278.615 110 276.528 110H7.19965C3.71285 110 1.29674 106.521 2.51452 103.254L19.8491 56.7463C20.2689 55.6199 20.2689 54.3801 19.8491 53.2537L2.51452 6.74627Z" fill="black" fill-opacity="0.3"/>
<mask id="mask0_0_1" style="mask-type:alpha" maskUnits="userSpaceOnUse" x="2" y="0" width="299" height="110">
<path d="M2.51452 6.74627C1.29674 3.47905 3.71286 0 7.19966 0H276.528C278.616 0 280.484 1.29733 281.213 3.25372L299.849 53.2537C300.269 54.3801 300.269 55.6199 299.849 56.7463L281.213 106.746C280.484 108.703 278.615 110 276.528 110H7.19965C3.71285 110 1.29674 106.521 2.51452 103.254L19.8491 56.7463C20.2689 55.6199 20.2689 54.3801 19.8491 53.2537L2.51452 6.74627Z" fill="black"/>
</mask>
<g mask="url(#mask0_0_1)">
<path d="M37.5938 -1.40001L75.5938 -15H106.394V125H70.5938V22.6L46.1938 28.8L37.5938 -1.40001Z" fill="#4C9FFF" fill-opacity="0.03"/>
</g>
</svg>
