<svg width="83" height="37" viewBox="0 0 83 37" fill="none" xmlns="http://www.w3.org/2000/svg">
<mask id="mask0_24_844" style="mask-type:luminance" maskUnits="userSpaceOnUse" x="0" y="0" width="83" height="37">
<path d="M82.2223 0.00439453H0.40332V36.765H82.2223V0.00439453Z" fill="white"/>
</mask>
<g mask="url(#mask0_24_844)">
<path d="M40.5005 20.7954H41.772V23.614H42.6907L44.3392 20.7954H45.7292L43.7506 24.1034V24.1265L45.847 27.7366H44.4101L42.7141 24.7079H41.7961V27.7366H40.5239V20.7947L40.5005 20.7954ZM48.6967 22.6358C50.2266 22.6358 51.4755 23.7305 51.4755 25.2444C51.4755 26.7823 50.2508 27.8538 48.7202 27.8538C47.1888 27.8538 45.9642 26.7823 45.9642 25.2444C45.9408 23.7073 47.1654 22.6358 48.6967 22.6358ZM52.4643 22.7516H53.6656V26.6657H55.2438V22.7524H56.4443V26.6657H58.0225V22.7524H59.2237V27.7366H52.5113V22.7516H52.4643ZM62.7805 22.6358C64.2167 22.6358 65.0175 23.6842 65.0175 24.9889C65.0135 25.1527 64.9979 25.316 64.9707 25.4776H61.5083C61.5793 26.3391 62.2622 26.8054 63.0162 26.8054C63.5337 26.8054 64.052 26.5723 64.4524 26.2697L64.9472 27.1551C64.429 27.5968 63.6516 27.877 62.9218 27.877C61.2491 27.877 60.2134 26.6889 60.2134 25.2676C60.2134 23.7073 61.2726 22.6358 62.7805 22.6358ZM65.606 26.6889C66.2187 26.5954 66.666 26.0836 66.666 24.3126V22.7524H70.3406V27.7366H69.0919V23.753H67.8672V24.3119C67.8672 26.4782 67.2787 27.7366 65.606 27.7829V26.6889ZM73.9201 22.6358C75.3563 22.6358 76.1571 23.6842 76.1571 24.9889C76.1532 25.1527 76.1376 25.316 76.1103 25.4776H72.6479C72.7189 26.3391 73.4019 26.8054 74.1558 26.8054C74.6734 26.8054 75.1916 26.5723 75.592 26.2697L76.0869 27.1551C75.5686 27.5968 74.7912 27.877 74.0614 27.877C72.3895 27.877 71.353 26.6889 71.353 25.2676C71.353 23.7073 72.413 22.6358 73.9201 22.6358ZM77.1937 22.7516H78.4417V24.6624H79.0544L80.2791 22.7524H81.6684L80.0668 25.1279V25.1518L81.8565 27.7366H80.3969L79.0779 25.7107H78.419V27.7366H77.1695V22.7516H77.1937ZM48.6967 26.7823C49.521 26.7823 50.204 26.1531 50.204 25.2213C50.204 24.3126 49.521 23.6603 48.6961 23.6603C47.8725 23.6603 47.213 24.2902 47.213 25.2213C47.213 26.1531 47.8718 26.7823 48.6967 26.7823ZM63.746 24.616C63.746 23.9636 63.298 23.5677 62.7329 23.5677C62.0975 23.5677 61.6261 23.9869 61.5083 24.616H63.746ZM74.8856 24.616C74.8856 23.9636 74.4384 23.5677 73.8733 23.5677C73.2364 23.5677 72.7657 23.9869 72.6479 24.616H74.8856Z" fill="white"/>
<path d="M58.0935 5.67712V17.441C58.0944 17.484 58.0866 17.5268 58.0704 17.5668C58.0542 17.6068 58.03 17.6431 57.9992 17.6735C57.9684 17.704 57.9317 17.728 57.8912 17.7439C57.8508 17.76 57.8076 17.7677 57.764 17.7667H55.3382C55.2947 17.7677 55.2514 17.76 55.2109 17.7439C55.1705 17.728 55.1338 17.704 55.103 17.6735C55.0723 17.6431 55.048 17.6068 55.0318 17.5668C55.0156 17.5268 55.0077 17.484 55.0088 17.441V5.67712C55.0077 5.63406 55.0156 5.59125 55.0318 5.55127C55.048 5.5113 55.0723 5.47499 55.103 5.44454C55.1338 5.41408 55.1705 5.39012 55.2109 5.37409C55.2514 5.35807 55.2947 5.35032 55.3382 5.35131H57.764C57.8076 5.35032 57.8508 5.35807 57.8912 5.37409C57.9317 5.39012 57.9684 5.41408 57.9992 5.44454C58.03 5.47499 58.0542 5.5113 58.0704 5.55127C58.0866 5.59125 58.0944 5.63406 58.0935 5.67712ZM77.0289 5.35131C77.1233 5.35131 77.2411 5.39765 77.3583 5.49105C77.4293 5.56056 77.4293 5.67712 77.4059 5.77051L73.4018 17.5575C73.3775 17.6185 73.3355 17.671 73.281 17.7084C73.2266 17.7458 73.1621 17.7663 73.0958 17.7675H70.9291C70.7878 17.7675 70.67 17.6973 70.6232 17.5575L68.2903 10.6858L65.9588 17.5568C65.9345 17.6178 65.8925 17.6703 65.838 17.7077C65.7835 17.745 65.7191 17.7656 65.6528 17.7667H63.4861C63.3448 17.7667 63.2269 17.6973 63.1801 17.5568L59.176 5.76979C59.1527 5.67712 59.1527 5.58372 59.223 5.49105C59.2705 5.39765 59.3884 5.35131 59.482 5.35131H62.1905C62.3317 5.35131 62.4496 5.44399 62.4971 5.58372L64.6397 12.5488L66.9953 5.58372C67.0196 5.52272 67.0617 5.47023 67.1162 5.43286C67.1706 5.39548 67.235 5.37492 67.3013 5.37376H69.2089C69.3502 5.37376 69.468 5.44399 69.5149 5.58372L71.8705 12.5488L74.0138 5.58372C74.033 5.51774 74.0731 5.45958 74.1281 5.41775C74.1832 5.37594 74.2504 5.35265 74.3197 5.35131H77.0289ZM81.1266 5.35131C81.2914 5.35131 81.4326 5.49105 81.456 5.67712V17.441C81.457 17.484 81.4492 17.5268 81.433 17.5668C81.4168 17.6068 81.3926 17.6431 81.3618 17.6735C81.331 17.704 81.2943 17.728 81.2539 17.7439C81.2135 17.76 81.1702 17.7677 81.1266 17.7667H78.7008C78.6572 17.7677 78.614 17.76 78.5736 17.7439C78.5332 17.728 78.4964 17.704 78.4657 17.6735C78.4348 17.6431 78.4106 17.6068 78.3944 17.5668C78.3783 17.5268 78.3704 17.484 78.3714 17.441V5.67712C78.3704 5.63406 78.3783 5.59125 78.3944 5.55127C78.4106 5.5113 78.4348 5.47499 78.4657 5.44454C78.4964 5.41408 78.5332 5.39012 78.5736 5.37409C78.614 5.35807 78.6572 5.35032 78.7008 5.35131H81.1266ZM53.5953 17.3483C53.7366 17.5112 53.6187 17.7436 53.4064 17.7436H50.4388C50.3805 17.7451 50.3225 17.7333 50.2694 17.7091C50.2163 17.6849 50.1696 17.6488 50.1329 17.6038L49.6388 16.9986C48.6023 17.6502 47.3769 18.0469 46.082 18.0469C42.4557 18.0469 39.5116 15.1349 39.5116 11.5474C39.5116 7.95995 42.4557 5.04795 46.082 5.04795C49.709 5.04795 52.6532 7.95995 52.6532 11.5474C52.6532 12.829 52.2762 14.0402 51.6167 15.0647L53.5953 17.3483ZM28.795 23.0549C29.4077 23.2881 29.6434 24.1961 29.6903 24.592C29.7846 25.3146 29.5732 25.5941 29.3375 25.5941C29.1017 25.5941 28.7716 25.3146 28.4188 24.7557C28.0652 24.1961 27.9239 23.5676 28.1128 23.241C28.2299 23.0311 28.4882 22.9384 28.795 23.0549ZM25.2155 25.6875C25.5925 25.6875 26.0163 25.8504 26.3933 26.1762C27.1231 26.7822 27.3354 27.4809 26.9584 27.9935C26.7462 28.2498 26.3933 28.4127 25.9929 28.4127C25.5925 28.4127 25.1686 28.273 24.8861 28.0166C24.2266 27.4577 24.0384 26.5252 24.4615 26.0133C24.6269 25.8034 24.8861 25.6875 25.2155 25.6875ZM16.9732 32.4194C8.02295 32.4194 0.769531 25.2444 0.769531 16.3926C0.769531 7.54074 8.02369 0.366455 16.9724 0.366455C25.9219 0.366455 33.176 7.54146 33.176 16.3926C33.176 19.3972 32.3284 22.2166 30.8922 24.6159C30.8446 24.6855 30.7268 24.6623 30.7033 24.5689C30.1382 20.6325 27.7123 18.4654 24.1798 17.8138C23.873 17.7667 23.8262 17.5807 24.2266 17.5344C25.3099 17.441 26.8406 17.4641 27.6414 17.6038C27.6882 17.2079 27.7123 16.7886 27.7123 16.3694C27.7123 10.5222 22.9075 5.76979 16.9959 5.76979C11.0849 5.76979 6.28005 10.5222 6.28005 16.3694C6.28005 22.2166 11.0849 26.969 16.9966 26.969H17.4906C17.3229 26.0233 17.2517 25.0632 17.2784 24.1034C17.3025 23.451 17.4438 23.3576 17.7264 23.8702C19.2102 26.4093 21.3301 28.6922 25.4746 29.6008C28.866 30.3466 32.2574 31.2082 35.9079 35.797C36.2373 36.193 35.7432 36.6122 35.3662 36.2864C31.6454 33.0247 28.254 31.9531 25.1686 31.9531C21.7063 31.9771 19.3522 32.4194 16.9732 32.4194ZM47.707 14.7389L46.4114 13.178C46.2709 13.015 46.3887 12.7588 46.6003 12.7588H49.3321C49.4733 12.3858 49.5444 11.9666 49.5444 11.5474C49.5444 9.61436 48.084 7.93678 46.082 7.93678C44.0807 7.93678 42.6197 9.61436 42.6197 11.5474C42.6197 13.4806 44.0807 15.1349 46.082 15.1349C46.6471 15.1581 47.2129 14.9953 47.707 14.7389Z" fill="#FF8C00"/>
</g>
</svg>
