<svg width="22" height="22" viewBox="0 0 22 22" fill="none" xmlns="http://www.w3.org/2000/svg">
<path d="M9.97034 5.94419H12.872C14.0425 5.94419 15.073 6.88078 15.073 8.09721C15.0734 8.38637 15.0168 8.67276 14.9063 8.93998C14.7958 9.2072 14.6337 9.45 14.4293 9.65447C14.2248 9.85893 13.982 10.021 13.7148 10.1315C13.4476 10.242 13.1612 10.2986 12.872 10.2982H9.97034V5.94419Z" fill="white"/>
<path fill-rule="evenodd" clip-rule="evenodd" d="M6.78858 0.834047C8.12389 0.281817 9.55501 -0.00160587 11 6.84383e-06C17.0863 6.84383e-06 22 4.91477 22 11C22 17.0852 17.0852 22 11 22C4.91477 22 6.84384e-06 17.0852 6.84384e-06 11C-0.00160587 9.55501 0.281817 8.12389 0.834047 6.78858C1.38628 5.45327 2.19647 4.24 3.21823 3.21823C4.24 2.19647 5.45327 1.38628 6.78858 0.834047ZM9.97048 11.8426H12.8721C14.8852 11.8426 16.6175 10.2044 16.6175 8.14429C16.6148 7.15198 16.2194 6.20107 15.5179 5.4993C14.8163 4.79753 13.8655 4.40195 12.8732 4.39898H8.42619V10.2983H5.85237V11.8426H8.42619V13.247H5.85237V14.7923H8.42517V17.601H9.97048V14.7923H14.8852V13.247H9.97048V11.8426Z" fill="white"/>
</svg>
