<svg width="40" height="40" viewBox="0 0 40 40" fill="none" xmlns="http://www.w3.org/2000/svg">
<g clip-path="url(#clip0_70_11)">
<path d="M38.8331 37.6181L31.4031 39.9248C30.9809 40.0561 30.5239 40.0143 30.1326 39.8086C29.7413 39.6029 29.4477 39.2503 29.3164 38.8281C29.1851 38.406 29.2269 37.949 29.4326 37.5577C29.6382 37.1663 29.9909 36.8727 30.4131 36.7414L32.4864 36.0981L30.9564 31.5981C30.6352 31.6395 30.3119 31.6617 29.9881 31.6648C28.1699 31.661 26.4028 31.0627 24.9563 29.961C23.5098 28.8594 22.4633 27.3149 21.9764 25.5631L21.7647 24.9381L23.4314 19.9964H37.6664L37.9997 21.0081C38.528 22.8029 38.431 24.7238 37.7245 26.4562C37.0181 28.1886 35.7441 29.6296 34.1114 30.5431L35.6631 35.1048L37.8297 34.4381C38.2519 34.3068 38.7089 34.3486 39.1002 34.5543C39.4915 34.76 39.7851 35.1126 39.9164 35.5348C40.0477 35.9569 40.0059 36.4139 39.8002 36.8052C39.5946 37.1966 39.2419 37.4902 38.8197 37.6214L38.8331 37.6181ZM24.4264 16.6664H36.5381L34.9281 11.8864C34.5415 10.6407 33.6868 9.59344 32.5439 8.96493C31.4009 8.33642 30.0588 8.17565 28.7997 8.51645L22.9264 10.1531C23.1648 10.4553 23.3825 10.7733 23.5781 11.1048C24.5057 12.8014 24.806 14.7705 24.4264 16.6664ZM17.6197 10.3064L11.1981 8.51645C9.94818 8.17168 8.61333 8.32455 7.47376 8.94297C6.33418 9.5614 5.47852 10.5973 5.0864 11.8331L3.46307 16.6664H21.0314L21.0647 16.5681C21.2571 15.9309 21.3203 15.2616 21.2506 14.5996C21.1809 13.9376 20.9797 13.2961 20.6589 12.7129C20.338 12.1297 19.9039 11.6164 19.382 11.2032C18.8601 10.7899 18.261 10.4851 17.6197 10.3064ZM1.97473 21.0948C1.4681 22.8863 1.58157 24.7965 2.29674 26.5154C3.01191 28.2344 4.28684 29.6613 5.91473 30.5648L4.3414 35.1114L2.1664 34.4348C1.95738 34.3691 1.73747 34.3453 1.51924 34.3646C1.301 34.3839 1.0887 34.446 0.894475 34.5474C0.700246 34.6488 0.527885 34.7874 0.387234 34.9554C0.246582 35.1234 0.140395 35.3174 0.0747336 35.5264C0.0090727 35.7355 -0.0147756 35.9554 0.00455033 36.1736C0.0238763 36.3918 0.085998 36.6041 0.187369 36.7984C0.288739 36.9926 0.427374 37.165 0.595356 37.3056C0.763339 37.4463 0.95738 37.5525 1.1664 37.6181L8.5964 39.9248C9.01854 40.0561 9.47553 40.0143 9.86686 39.8086C10.2582 39.6029 10.5518 39.2503 10.6831 38.8281C10.8143 38.406 10.7726 37.949 10.5669 37.5577C10.3612 37.1663 10.0085 36.8727 9.5864 36.7414L7.5264 36.0998L9.08473 31.5998C9.39379 31.6395 9.70484 31.6617 10.0164 31.6664C11.8183 31.662 13.5703 31.0736 15.0096 29.9895C16.4489 28.9053 17.4981 27.3838 17.9997 25.6531L19.9081 19.9998H2.34307L1.97473 21.0948ZM25.9214 6.49978C26.1182 6.59872 26.3326 6.65767 26.5523 6.67324C26.772 6.6888 26.9926 6.66067 27.2014 6.59046C27.4101 6.52026 27.6029 6.40937 27.7685 6.26422C27.9342 6.11906 28.0694 5.94251 28.1664 5.74478L29.8331 2.41145C30.0307 2.01583 30.063 1.55793 29.923 1.13847C29.7829 0.719018 29.482 0.372367 29.0864 0.174781C28.6908 -0.0228055 28.2329 -0.0551419 27.8134 0.0848853C27.394 0.224912 27.0473 0.525833 26.8497 0.921447L25.1831 4.25478C25.0835 4.45055 25.0237 4.66406 25.0069 4.88304C24.9902 5.10202 25.0169 5.32215 25.0855 5.53077C25.1541 5.7394 25.2633 5.9324 25.4068 6.0987C25.5502 6.26499 25.7251 6.4013 25.9214 6.49978ZM11.8414 5.74478C12.039 6.1415 12.3861 6.44348 12.8063 6.58429C13.0144 6.65401 13.2342 6.68206 13.4531 6.66685C13.672 6.65163 13.8858 6.59345 14.0822 6.49561C14.2787 6.39778 14.4539 6.26221 14.598 6.09665C14.742 5.93109 14.852 5.73878 14.9217 5.5307C14.9915 5.32262 15.0195 5.10284 15.0043 4.88392C14.9891 4.665 14.9309 4.45122 14.8331 4.25478L13.1664 0.921447C13.0686 0.725559 12.9331 0.550859 12.7678 0.407321C12.6024 0.263784 12.4104 0.15422 12.2027 0.0848853C11.7832 -0.0551419 11.3253 -0.0228055 10.9297 0.174781C10.5341 0.372367 10.2332 0.719018 10.0932 1.13847C9.95314 1.55793 9.98548 2.01583 10.1831 2.41145L11.8414 5.74478ZM19.9997 -0.00021921C19.5577 -0.00021921 19.1338 0.175376 18.8212 0.487936C18.5087 0.800497 18.3331 1.22442 18.3331 1.66645V4.99978C18.3331 5.44181 18.5087 5.86573 18.8212 6.17829C19.1338 6.49085 19.5577 6.66645 19.9997 6.66645C20.4418 6.66645 20.8657 6.49085 21.1782 6.17829C21.4908 5.86573 21.6664 5.44181 21.6664 4.99978V1.66645C21.6664 1.22442 21.4908 0.800497 21.1782 0.487936C20.8657 0.175376 20.4418 -0.00021921 19.9997 -0.00021921Z" fill="white"/>
</g>
<defs>
<clipPath id="clip0_70_11">
<rect width="40" height="40" fill="white"/>
</clipPath>
</defs>
</svg>
