<svg width="96" height="96" viewBox="0 0 96 96" fill="none" xmlns="http://www.w3.org/2000/svg">
<g clip-path="url(#clip0_16_661)">
<rect width="96" height="96" rx="48" fill="white"/>
<path d="M71.9241 36.6625C70.2683 36.6625 68.6288 36.3364 67.099 35.7028C65.5693 35.0692 64.1793 34.1404 63.0085 32.9696C61.8377 31.7988 60.909 30.4089 60.2753 28.8792C59.6417 27.3494 59.3155 25.7099 59.3155 24.0541H50.3075V59.3278C50.3058 60.936 49.798 62.5029 48.856 63.8064C47.9141 65.1098 46.5857 66.0838 45.0593 66.5902C43.5329 67.0965 41.8859 67.1096 40.3516 66.6276C38.8173 66.1456 37.4737 65.193 36.5111 63.9047C35.5485 62.6164 35.0157 61.0578 34.9884 59.4498C34.9611 57.8418 35.4405 56.2661 36.3588 54.9458C37.2771 53.6255 38.5876 52.6278 40.1046 52.0939C41.6216 51.5601 43.2682 51.5172 44.8109 51.9714V43.215C41.5323 42.7729 38.1969 43.3416 35.25 44.845C32.3031 46.3485 29.885 48.7152 28.3186 51.6291C26.7522 54.543 26.112 57.8655 26.4836 61.1528C26.8552 64.4402 28.2208 67.5359 30.3981 70.0267C32.5754 72.5174 35.4608 74.2847 38.6689 75.0924C41.8771 75.9001 45.2553 75.7099 48.3525 74.5472C51.4496 73.3844 54.1184 71.3044 56.0023 68.585C57.8863 65.8656 58.8958 62.6361 58.896 59.3278L59.1573 41.4979C62.8585 44.215 67.3317 45.677 71.9231 45.6702L71.9241 36.6625Z" fill="url(#paint0_linear_16_661)"/>
<path d="M69.5429 34.2087C66.199 34.2086 62.992 32.8801 60.6276 30.5156C58.2631 28.151 56.9348 24.944 56.9348 21.6001H47.9268V56.8738C47.9251 58.482 47.4173 60.0489 46.4754 61.3524C45.5335 62.6559 44.2052 63.6299 42.6787 64.1363C41.1523 64.6427 39.5053 64.6558 37.971 64.1738C36.4367 63.6919 35.093 62.7392 34.1304 61.4509C33.1678 60.1626 32.635 58.604 32.6077 56.9961C32.5804 55.3881 33.0598 53.8123 33.9781 52.492C34.8963 51.1717 36.2069 50.1739 37.7239 49.6401C39.2409 49.1062 40.8875 49.0634 42.4302 49.5176V40.761C39.1516 40.3189 35.8162 40.8876 32.8693 42.391C29.9224 43.8945 27.5043 46.2612 25.9379 49.1751C24.3715 52.089 23.7313 55.4115 24.1029 58.6988C24.4745 61.9861 25.8401 65.0819 28.0174 67.5726C30.1947 70.0634 33.0801 71.8307 36.2882 72.6384C39.4964 73.4461 42.8746 73.2559 45.9718 72.0932C49.0689 70.9304 51.7377 68.8504 53.6216 66.131C55.5056 63.4116 56.5151 60.1821 56.5153 56.8738L56.778 39.0441C60.4792 41.7611 64.9524 43.223 69.5438 43.2162L69.5429 34.2087Z" fill="url(#paint1_linear_16_661)"/>
<path d="M69.5429 36.437C66.4262 35.8373 63.6503 34.0843 61.7694 31.5278C59.392 29.6672 57.7614 27.0152 57.1739 24.0541H50.3081V59.3278C50.308 61.0019 49.7601 62.63 48.748 63.9635C47.7359 65.297 46.3153 66.2627 44.7029 66.7133C43.0906 67.1638 41.3751 67.0743 39.8184 66.4586C38.2616 65.8428 36.9492 64.7346 36.0812 63.303C34.5379 62.2984 33.4075 60.7721 32.8966 59.0028C32.3858 57.2335 32.5286 55.3395 33.2989 53.6669C34.0693 51.9942 35.4158 50.6546 37.0923 49.8927C38.7689 49.1309 40.6636 48.9978 42.4302 49.5176V43.0739C39.4 43.1129 36.4411 43.9981 33.8873 45.6297C31.3336 47.2613 29.2867 49.5742 27.9778 52.3074C26.6689 55.0406 26.1501 58.0853 26.4798 61.0978C26.8096 64.1102 27.9749 66.9705 29.8441 69.3558C32.2172 71.3359 35.1055 72.5985 38.1706 72.9956C41.2356 73.3927 44.3503 72.9078 47.1496 71.5977C49.9489 70.2877 52.3167 68.2068 53.9755 65.599C55.6343 62.9912 56.5153 59.9646 56.5153 56.8739L56.778 39.0441C60.4792 41.7611 64.9524 43.2231 69.5438 43.2162L69.5429 36.437Z" fill="#111111"/>
</g>
<defs>
<linearGradient id="paint0_linear_16_661" x1="29.9909" y1="69.6691" x2="67.4608" y2="32.1991" gradientUnits="userSpaceOnUse">
<stop stop-color="#B5053C"/>
<stop offset="0.233" stop-color="#C90441"/>
<stop offset="0.737" stop-color="#F0014B"/>
<stop offset="1" stop-color="#FF004F"/>
</linearGradient>
<linearGradient id="paint1_linear_16_661" x1="27.0519" y1="67.7728" x2="66.5216" y2="28.3033" gradientUnits="userSpaceOnUse">
<stop stop-color="#00B2C9"/>
<stop offset="0.283" stop-color="#00C8D4"/>
<stop offset="0.741" stop-color="#00E6E4"/>
<stop offset="1" stop-color="#00F1EA"/>
</linearGradient>
<clipPath id="clip0_16_661">
<rect width="96" height="96" fill="white"/>
</clipPath>
</defs>
</svg>
