<svg width="96" height="96" viewBox="0 0 96 96" fill="none" xmlns="http://www.w3.org/2000/svg">
<rect width="96" height="96" rx="48" fill="#0077FF"/>
<path d="M50.358 64.8C32.3183 64.8 22.0287 52.1874 21.6 31.2H30.6363C30.9331 46.6042 37.595 53.1291 42.8717 54.4745V31.2H51.3804V44.4853C56.5911 43.9135 62.0657 37.8595 63.9125 31.2H72.4212C71.7253 34.6538 70.338 37.924 68.3462 40.806C66.3544 43.688 63.8009 46.1199 60.8454 47.9496C64.1445 49.6213 67.0583 51.9876 69.3948 54.8922C71.7313 57.7968 73.4372 61.1737 74.4 64.8H65.0338C64.1695 61.6503 62.4129 58.8307 59.9841 56.6948C57.5553 54.5588 54.5624 53.2015 51.3804 52.7928V64.8H50.358Z" fill="white"/>
</svg>
