<svg width="96" height="96" viewBox="0 0 96 96" fill="none" xmlns="http://www.w3.org/2000/svg">
<rect width="96" height="96" rx="48" fill="#F40000"/>
<path fill-rule="evenodd" clip-rule="evenodd" d="M27.0299 64.9364C26.0885 64.6578 25.2295 64.1623 24.5255 63.4917C23.8214 62.821 23.2929 61.9949 22.9846 61.0829C21.223 56.3697 20.701 36.6886 24.0938 32.8034C25.223 31.5395 26.8173 30.7613 28.5306 30.6378C37.6326 29.6824 65.7539 29.8098 68.9836 30.9563C69.892 31.244 70.722 31.7286 71.4112 32.3739C72.1005 33.0192 72.6312 33.8084 72.9637 34.6823C74.8885 39.5548 74.9537 57.2614 72.7027 61.9428C72.1056 63.1614 71.1059 64.1485 69.8645 64.7453C66.4716 66.4013 31.532 66.3694 27.0299 64.9364ZM41.4821 55.7009L57.7938 47.4209L41.4821 39.0771V55.7009Z" fill="white"/>
</svg>
